<svg width="26" height="25" viewBox="0 0 26 25" fill="none" xmlns="http://www.w3.org/2000/svg">
<g style="mix-blend-mode:luminosity">
<path d="M24.6672 0.594971L14.5918 8.1087L16.4809 3.67753L24.6672 0.594971Z" fill="#E17726" stroke="#E17726" stroke-width="0.108083" stroke-linecap="round" stroke-linejoin="round"/>
<path d="M1.4502 0.594971L11.4435 8.16374L9.66388 3.67752L1.4502 0.594971Z" fill="#E27625" stroke="#E27625" stroke-width="0.108083" stroke-linecap="round" stroke-linejoin="round"/>
<path d="M21.053 17.9895L18.3699 22.1179L24.0921 23.6867L25.7348 18.0721L21.053 17.9895Z" fill="#E27625" stroke="#E27625" stroke-width="0.108083" stroke-linecap="round" stroke-linejoin="round"/>
<path d="M0.40918 18.0721L2.02455 23.6867L7.74677 22.1179L5.091 17.9895L0.40918 18.0721Z" fill="#E27625" stroke="#E27625" stroke-width="0.108083" stroke-linecap="round" stroke-linejoin="round"/>
<path d="M7.44592 11.0262L5.83057 13.4482L11.5254 13.6959L11.3337 7.55835L7.44592 11.0262Z" fill="#E27625" stroke="#E27625" stroke-width="0.108083" stroke-linecap="round" stroke-linejoin="round"/>
<path d="M18.6987 11.026L14.7287 7.47552L14.5918 13.6957L20.2866 13.448L18.6987 11.026Z" fill="#E27625" stroke="#E27625" stroke-width="0.108083" stroke-linecap="round" stroke-linejoin="round"/>
<path d="M7.74683 22.118L11.1692 20.4391L8.23965 18.1272L7.74683 22.118Z" fill="#E27625" stroke="#E27625" stroke-width="0.108083" stroke-linecap="round" stroke-linejoin="round"/>
<path d="M14.948 20.4391L18.3704 22.118L17.9049 18.1272L14.948 20.4391Z" fill="#E27625" stroke="#E27625" stroke-width="0.108083" stroke-linecap="round" stroke-linejoin="round"/>
<path d="M18.3704 22.1179L14.948 20.439L15.2218 22.6683L15.1944 23.6316L18.3704 22.1179Z" fill="#D5BFB2" stroke="#D5BFB2" stroke-width="0.108083" stroke-linecap="round" stroke-linejoin="round"/>
<path d="M7.74683 22.1179L10.9228 23.6316V22.6683L11.1692 20.439L7.74683 22.1179Z" fill="#D5BFB2" stroke="#D5BFB2" stroke-width="0.108083" stroke-linecap="round" stroke-linejoin="round"/>
<path d="M11.0046 16.641L8.15723 15.7878L10.1559 14.8796L11.0046 16.641Z" fill="#233447" stroke="#233447" stroke-width="0.108083" stroke-linecap="round" stroke-linejoin="round"/>
<path d="M15.1392 16.641L15.9605 14.8796L17.9866 15.7878L15.1392 16.641Z" fill="#233447" stroke="#233447" stroke-width="0.108083" stroke-linecap="round" stroke-linejoin="round"/>
<path d="M7.74708 22.1179L8.2399 17.9895L5.09131 18.0721L7.74708 22.1179Z" fill="#CC6228" stroke="#CC6228" stroke-width="0.108083" stroke-linecap="round" stroke-linejoin="round"/>
<path d="M17.877 17.9895L18.3698 22.1179L21.0529 18.0721L17.877 17.9895Z" fill="#CC6228" stroke="#CC6228" stroke-width="0.108083" stroke-linecap="round" stroke-linejoin="round"/>
<path d="M20.2866 13.4481L14.5918 13.6958L15.1394 16.6408L15.9608 14.8793L17.9868 15.7876L20.2866 13.4481Z" fill="#CC6228" stroke="#CC6228" stroke-width="0.108083" stroke-linecap="round" stroke-linejoin="round"/>
<path d="M8.15777 15.7876L10.1564 14.8793L11.0052 16.6408L11.5254 13.6958L5.83057 13.4481L8.15777 15.7876Z" fill="#CC6228" stroke="#CC6228" stroke-width="0.108083" stroke-linecap="round" stroke-linejoin="round"/>
<path d="M5.83057 13.4481L8.2399 18.127L8.15776 15.7876L5.83057 13.4481Z" fill="#E27525" stroke="#E27525" stroke-width="0.108083" stroke-linecap="round" stroke-linejoin="round"/>
<path d="M17.9867 15.7876L17.9045 18.127L20.2865 13.4481L17.9867 15.7876Z" fill="#E27525" stroke="#E27525" stroke-width="0.108083" stroke-linecap="round" stroke-linejoin="round"/>
<path d="M11.5251 13.6959L11.0049 16.6408L11.662 20.1087L11.7989 15.5399L11.5251 13.6959Z" fill="#E27525" stroke="#E27525" stroke-width="0.108083" stroke-linecap="round" stroke-linejoin="round"/>
<path d="M14.5914 13.6959L14.3176 15.5399L14.4545 20.1087L15.139 16.6408L14.5914 13.6959Z" fill="#E27525" stroke="#E27525" stroke-width="0.108083" stroke-linecap="round" stroke-linejoin="round"/>
<path d="M15.1393 16.641L14.4548 20.1089L14.9477 20.4391L17.9046 18.1272L17.9867 15.7878L15.1393 16.641Z" fill="#F5841F" stroke="#F5841F" stroke-width="0.108083" stroke-linecap="round" stroke-linejoin="round"/>
<path d="M8.15723 15.7878L8.23936 18.1272L11.1689 20.4391L11.6617 20.1089L11.0046 16.641L8.15723 15.7878Z" fill="#F5841F" stroke="#F5841F" stroke-width="0.108083" stroke-linecap="round" stroke-linejoin="round"/>
<path d="M15.1939 23.6317L15.2213 22.6684L14.9749 22.4482H11.1692L10.9228 22.6684V23.6317L7.74683 22.1179L8.86936 23.0262L11.1144 24.595H15.0022L17.2473 23.0262L18.3699 22.1179L15.1939 23.6317Z" fill="#C0AC9D" stroke="#C0AC9D" stroke-width="0.108083" stroke-linecap="round" stroke-linejoin="round"/>
<path d="M14.9473 20.4389L14.4545 20.1086H11.6618L11.169 20.4389L10.9226 22.6683L11.169 22.4481H14.9747L15.2211 22.6683L14.9473 20.4389Z" fill="#161616" stroke="#161616" stroke-width="0.108083" stroke-linecap="round" stroke-linejoin="round"/>
<path d="M25.0782 8.57658L25.9269 4.44816L24.6675 0.594971L14.948 7.83347L18.6989 11.0261L23.9556 12.5674L25.1329 11.1912L24.6127 10.8335L25.4341 10.0903L24.8044 9.62245L25.6258 8.98943L25.0782 8.57658Z" fill="#763E1A" stroke="#763E1A" stroke-width="0.108083" stroke-linecap="round" stroke-linejoin="round"/>
<path d="M0.190918 4.44816L1.03967 8.57658L0.492088 8.98943L1.31346 9.62245L0.683741 10.0903L1.50511 10.8335L0.984911 11.1912L2.16221 12.5674L7.44637 11.0261L11.1699 7.83347L1.45036 0.594971L0.190918 4.44816Z" fill="#763E1A" stroke="#763E1A" stroke-width="0.108083" stroke-linecap="round" stroke-linejoin="round"/>
<path d="M23.9553 12.5676L18.6985 11.0263L20.2865 13.4483L17.9045 18.1272L21.0531 18.0722H25.7349L23.9553 12.5676Z" fill="#F5841F" stroke="#F5841F" stroke-width="0.108083" stroke-linecap="round" stroke-linejoin="round"/>
<path d="M7.4456 11.0263L2.16144 12.5676L0.40918 18.0722H5.091L8.2396 18.1272L5.83024 13.4483L7.4456 11.0263Z" fill="#F5841F" stroke="#F5841F" stroke-width="0.108083" stroke-linecap="round" stroke-linejoin="round"/>
<path d="M14.5915 13.696L14.9475 7.83362L16.4807 3.67767H9.66333L11.1692 7.83362L11.5251 13.696L11.662 15.54V20.1088H14.4546L14.482 15.54L14.5915 13.696Z" fill="#F5841F" stroke="#F5841F" stroke-width="0.108083" stroke-linecap="round" stroke-linejoin="round"/>
</g>
</svg>
