<svg width="179" height="35" viewBox="0 0 179 35" fill="none" xmlns="http://www.w3.org/2000/svg">
<g filter="url(#filter0_d)">
<path fill-rule="evenodd" clip-rule="evenodd" d="M136.67 24.8339H139.862V8.229H136.67V24.8339ZM48.0383 22.0884H45.6552V11.7213H48.0383C50.9459 11.7213 52.5857 13.5442 52.5857 16.861C52.5857 20.2874 50.9897 22.0884 48.0383 22.0884ZM55.9524 16.8501C55.9524 11.8202 53.165 8.98677 48.4318 8.98677H42.3542V24.834H48.4318C53.165 24.834 55.9524 21.8797 55.9524 16.8501ZM65.6344 17.5421H60.442C60.5514 15.9937 61.6225 14.9285 63.0765 14.9285C64.5521 14.9285 65.5796 15.9607 65.6344 17.5421ZM63.164 25.043C66.0934 25.043 68.2689 23.4833 68.6187 21.1442H65.6781C65.3721 22.0776 64.4209 22.6488 63.2185 22.6488C61.5351 22.6488 60.4092 21.4736 60.4092 19.7275V19.5298H68.7169V18.5416C68.7169 14.8624 66.509 12.5343 63.0436 12.5343C59.513 12.5343 57.261 14.9943 57.261 18.8379C57.261 22.6816 59.502 25.043 63.164 25.043ZM78.2023 17.2017C78.0274 15.9497 77.1529 15.0601 75.7647 15.0601C74.125 15.0601 73.0866 16.4658 73.0866 18.7831C73.0866 21.1442 74.125 22.5061 75.7756 22.5061C77.12 22.5061 78.0055 21.7703 78.2132 20.4414H81.1865C81.0007 23.2528 78.9019 25.043 75.7427 25.043C72.1464 25.043 69.8508 22.6708 69.8508 18.7831C69.8508 14.9505 72.1464 12.5343 75.7208 12.5343C78.9564 12.5343 81.0226 14.5112 81.1756 17.2017H78.2023ZM90.5727 17.5421H85.3803C85.4897 15.9937 86.5608 14.9285 88.0148 14.9285C89.4904 14.9285 90.5179 15.9607 90.5727 17.5421ZM88.1023 25.043C91.0317 25.043 93.2072 23.4833 93.557 21.1442H90.6164C90.3105 22.0776 89.3592 22.6488 88.1569 22.6488C86.4734 22.6488 85.3475 21.4736 85.3475 19.7275V19.5298H93.6552V18.5416C93.6552 14.8624 91.4473 12.5343 87.982 12.5343C84.4514 12.5343 82.1994 14.9943 82.1994 18.8379C82.1994 22.6816 84.4404 25.043 88.1023 25.043ZM95.2375 12.7429H98.3201V14.9062H98.3856C99.0743 13.3799 100.299 12.5671 102.146 12.5671C104.813 12.5671 106.322 14.2584 106.322 17.0809V24.8341H103.13V17.7507C103.13 16.1472 102.386 15.2359 100.878 15.2359C99.3476 15.2359 98.4295 16.334 98.4295 17.9374V24.8341H95.2375V12.7429ZM112.341 12.7425V10.052H109.149V12.7425H107.521V15.1697H109.149V21.5722C109.149 23.9334 110.243 24.8778 113.03 24.8778C113.675 24.8778 114.243 24.8119 114.571 24.7461V22.374C114.375 22.4068 114.057 22.4288 113.773 22.4288C112.801 22.4288 112.341 21.9785 112.341 21.0451V15.1697H114.571V12.7425H112.341ZM116.285 12.7429H119.368V14.9063H119.433C119.838 13.4127 120.876 12.6002 122.297 12.6002C122.669 12.6002 122.997 12.644 123.226 12.7209V15.5543C122.953 15.4444 122.516 15.3676 122.046 15.3676C120.428 15.3676 119.477 16.378 119.477 18.0691V24.8341H116.285V12.7429ZM131.437 19.5077V20.3973C131.437 21.7152 130.257 22.6378 128.781 22.6378C127.622 22.6378 126.868 22.0776 126.868 21.188C126.868 20.2985 127.578 19.7713 128.912 19.6835L131.437 19.5077ZM128.431 17.7288C125.359 17.9156 123.687 19.1566 123.687 21.353C123.687 23.5166 125.425 24.9771 127.742 24.9771C129.284 24.9771 130.77 24.2302 131.426 22.9674H131.492V24.8342H134.574V16.5429C134.574 14.1267 132.552 12.5343 129.459 12.5343C126.452 12.5343 124.376 14.1267 124.288 16.433H127.207C127.36 15.5544 128.168 14.9394 129.327 14.9394C130.639 14.9394 131.437 15.5765 131.437 16.7406V17.5421L128.431 17.7288ZM149.227 19.5077V20.3973C149.227 21.7152 148.047 22.6378 146.571 22.6378C145.412 22.6378 144.658 22.0776 144.658 21.188C144.658 20.2985 145.368 19.7713 146.702 19.6835L149.227 19.5077ZM146.22 17.7288C143.149 17.9156 141.477 19.1566 141.477 21.353C141.477 23.5166 143.215 24.9771 145.532 24.9771C147.073 24.9771 148.56 24.2302 149.216 22.9674H149.281V24.8342H152.364V16.5429C152.364 14.1267 150.342 12.5343 147.248 12.5343C144.242 12.5343 142.165 14.1267 142.078 16.433H144.996C145.149 15.5544 145.958 14.9394 147.117 14.9394C148.429 14.9394 149.227 15.5765 149.227 16.7406V17.5421L146.22 17.7288ZM154.372 12.7429H157.455V14.9062H157.521C158.209 13.3799 159.433 12.5671 161.281 12.5671C163.948 12.5671 165.456 14.2584 165.456 17.0809V24.8341H162.265V17.7507C162.265 16.1472 161.521 15.2359 160.013 15.2359C158.482 15.2359 157.564 16.334 157.564 17.9374V24.8341H154.372V12.7429ZM173.108 22.385C171.447 22.385 170.386 21.0013 170.386 18.7829C170.386 16.5864 171.447 15.1917 173.108 15.1917C174.759 15.1917 175.83 16.6085 175.83 18.7939C175.83 20.9793 174.759 22.385 173.108 22.385ZM172.059 12.5998C169.063 12.5998 167.118 14.983 167.118 18.7718C167.118 22.5827 169.052 24.9766 172.048 24.9766C173.819 24.9766 175.207 24.098 175.797 22.7694H175.852V24.8339H179V8.229H175.808V14.8073H175.742C175.141 13.4676 173.797 12.5998 172.059 12.5998Z" fill="white"/>
<path fill-rule="evenodd" clip-rule="evenodd" d="M16.863 33.737C26.1761 33.737 33.7259 26.1847 33.7259 16.8685C33.7259 7.55229 26.1761 0 16.863 0C7.5498 0 0 7.55229 0 16.8685C0 26.1847 7.5498 33.737 16.863 33.737Z" fill="url(#paint0_linear)"/>
<path fill-rule="evenodd" clip-rule="evenodd" d="M11.9473 10.9645V23.6159H22.4865L11.9473 10.9645Z" fill="url(#paint1_linear)"/>
<path fill-rule="evenodd" clip-rule="evenodd" d="M1.40771 23.6161H11.947V10.9647L1.40771 23.6161Z" fill="white"/>
<path fill-rule="evenodd" clip-rule="evenodd" d="M6.74487 30.3634C9.56098 32.4804 13.0685 33.7371 16.8626 33.7371C20.6568 33.7371 24.1643 32.4804 26.9804 30.3634H6.74487Z" fill="#FF2D55"/>
<path fill-rule="evenodd" clip-rule="evenodd" d="M3.37207 26.9896C4.33326 28.2632 5.4715 29.4018 6.74466 30.3633H26.9802C28.2533 29.4018 29.3916 28.2632 30.3528 26.9896H3.37207Z" fill="#FC9965"/>
<path fill-rule="evenodd" clip-rule="evenodd" d="M22.6212 23.6161H1.40771C1.93046 24.8222 2.59655 25.9524 3.37224 26.9898H22.6297V23.6161H22.6212Z" fill="#FFBC5B"/>
<path fill-rule="evenodd" clip-rule="evenodd" d="M22.6213 17.7117V26.9893H30.353L22.6213 17.7117Z" fill="url(#paint2_linear)"/>
<path fill-rule="evenodd" clip-rule="evenodd" d="M14.8984 26.99H22.6216V17.7123L14.8984 26.99Z" fill="white"/>
<path fill-rule="evenodd" clip-rule="evenodd" d="M22.6215 15.1816C24.9498 15.1816 26.8372 13.2935 26.8372 10.9644C26.8372 8.63539 24.9498 6.74731 22.6215 6.74731C20.2932 6.74731 18.4058 8.63539 18.4058 10.9644C18.4058 13.2935 20.2932 15.1816 22.6215 15.1816Z" fill="#FFC95B"/>
<path fill-rule="evenodd" clip-rule="evenodd" d="M11.947 8.43441C13.1111 8.43441 14.0548 7.49037 14.0548 6.32585C14.0548 5.16132 13.1111 4.21729 11.947 4.21729C10.7828 4.21729 9.83911 5.16132 9.83911 6.32585C9.83911 7.49037 10.7828 8.43441 11.947 8.43441Z" fill="#FFC95B"/>
</g>
<defs>
<filter id="filter0_d" x="0" y="0" width="179" height="34.4207" filterUnits="userSpaceOnUse" colorInterpolationFilters="sRGB">
<feFlood floodOpacity="0" result="BackgroundImageFix"/>
<feColorMatrix in="SourceAlpha" type="matrix" values="0 0 0 0 0 0 0 0 0 0 0 0 0 0 0 0 0 0 127 0"/>
<feOffset dy="0.683609"/>
<feColorMatrix type="matrix" values="0 0 0 0 0 0 0 0 0 0 0 0 0 0 0 0 0 0 0.8 0"/>
<feBlend mode="normal" in2="BackgroundImageFix" result="effect1_dropShadow"/>
<feBlend mode="normal" in="SourceGraphic" in2="effect1_dropShadow" result="shape"/>
</filter>
<linearGradient id="paint0_linear" x1="16.863" y1="-6.98716" x2="-6.9927" y2="16.8607" gradientUnits="userSpaceOnUse">
<stop stopColor="#FF2D55"/>
<stop offset="1" stopColor="#FFBC5B"/>
</linearGradient>
<linearGradient id="paint1_linear" x1="11.9437" y1="10.9645" x2="11.9437" y2="23.6159" gradientUnits="userSpaceOnUse">
<stop stopColor="#A524B3"/>
<stop offset="1" stopColor="#FF2D55"/>
</linearGradient>
<linearGradient id="paint2_linear" x1="22.6187" y1="17.7117" x2="22.6187" y2="26.9893" gradientUnits="userSpaceOnUse">
<stop stopColor="#A524B3"/>
<stop offset="1" stopColor="#FF2D55"/>
</linearGradient>
</defs>
</svg>
