<svg width="51" height="48" viewBox="0 0 51 48" fill="none" xmlns="http://www.w3.org/2000/svg">
<path d="M48.1883 0.890869L28.7776 15.3663L32.4171 6.82951L48.1883 0.890869Z" fill="#E17726" stroke="#E17726" stroke-width="0.105293" stroke-linecap="round" stroke-linejoin="round"/>
<path d="M3.45972 0.890869L22.7122 15.4724L19.2836 6.82951L3.45972 0.890869Z" fill="#E27625" stroke="#E27625" stroke-width="0.105293" stroke-linecap="round" stroke-linejoin="round"/>
<path d="M41.2253 34.4015L36.0562 42.355L47.0801 45.3774L50.2449 34.5606L41.2253 34.4015Z" fill="#E27625" stroke="#E27625" stroke-width="0.105293" stroke-linecap="round" stroke-linejoin="round"/>
<path d="M1.45483 34.5606L4.56689 45.3774L15.5909 42.355L10.4745 34.4015L1.45483 34.5606Z" fill="#E27625" stroke="#E27625" stroke-width="0.105293" stroke-linecap="round" stroke-linejoin="round"/>
<path d="M15.0107 20.9866L11.8987 25.6527L22.8699 26.1299L22.5007 14.3057L15.0107 20.9866Z" fill="#E27625" stroke="#E27625" stroke-width="0.105293" stroke-linecap="round" stroke-linejoin="round"/>
<path d="M36.6896 20.9866L29.0413 14.1466L28.7776 26.1299L39.7489 25.6527L36.6896 20.9866Z" fill="#E27625" stroke="#E27625" stroke-width="0.105293" stroke-linecap="round" stroke-linejoin="round"/>
<path d="M15.592 42.3556L22.1853 39.1212L16.5415 34.6672L15.592 42.3556Z" fill="#E27625" stroke="#E27625" stroke-width="0.105293" stroke-linecap="round" stroke-linejoin="round"/>
<path d="M29.4639 39.1212L36.0572 42.3556L35.1605 34.6672L29.4639 39.1212Z" fill="#E27625" stroke="#E27625" stroke-width="0.105293" stroke-linecap="round" stroke-linejoin="round"/>
<path d="M36.0572 42.3553L29.4639 39.1208L29.9913 43.4158L29.9386 45.2716L36.0572 42.3553Z" fill="#D5BFB2" stroke="#D5BFB2" stroke-width="0.105293" stroke-linecap="round" stroke-linejoin="round"/>
<path d="M15.592 42.3553L21.7106 45.2716V43.4158L22.1853 39.1208L15.592 42.3553Z" fill="#D5BFB2" stroke="#D5BFB2" stroke-width="0.105293" stroke-linecap="round" stroke-linejoin="round"/>
<path d="M21.8679 31.8039L16.3823 30.1602L20.2327 28.4104L21.8679 31.8039Z" fill="#233447" stroke="#233447" stroke-width="0.105293" stroke-linecap="round" stroke-linejoin="round"/>
<path d="M29.8315 31.8039L31.4139 28.4104L35.3172 30.1602L29.8315 31.8039Z" fill="#233447" stroke="#233447" stroke-width="0.105293" stroke-linecap="round" stroke-linejoin="round"/>
<path d="M15.5898 42.355L16.5393 34.4015L10.4734 34.5606L15.5898 42.355Z" fill="#CC6228" stroke="#CC6228" stroke-width="0.105293" stroke-linecap="round" stroke-linejoin="round"/>
<path d="M35.1079 34.4015L36.0573 42.355L41.2264 34.5606L35.1079 34.4015Z" fill="#CC6228" stroke="#CC6228" stroke-width="0.105293" stroke-linecap="round" stroke-linejoin="round"/>
<path d="M39.7489 25.6526L28.7776 26.1298L29.8325 31.8033L31.4149 28.4098L35.3182 30.1596L39.7489 25.6526Z" fill="#CC6228" stroke="#CC6228" stroke-width="0.105293" stroke-linecap="round" stroke-linejoin="round"/>
<path d="M16.3821 30.1596L20.2326 28.4098L21.8677 31.8033L22.8699 26.1298L11.8987 25.6526L16.3821 30.1596Z" fill="#CC6228" stroke="#CC6228" stroke-width="0.105293" stroke-linecap="round" stroke-linejoin="round"/>
<path d="M11.8987 25.6526L16.5403 34.6666L16.3821 30.1596L11.8987 25.6526Z" fill="#E27525" stroke="#E27525" stroke-width="0.105293" stroke-linecap="round" stroke-linejoin="round"/>
<path d="M35.3177 30.1596L35.1594 34.6666L39.7483 25.6526L35.3177 30.1596Z" fill="#E27525" stroke="#E27525" stroke-width="0.105293" stroke-linecap="round" stroke-linejoin="round"/>
<path d="M22.8703 26.13L21.8682 31.8035L23.134 38.4845L23.3978 29.6826L22.8703 26.13Z" fill="#E27525" stroke="#E27525" stroke-width="0.105293" stroke-linecap="round" stroke-linejoin="round"/>
<path d="M28.776 26.13L28.2485 29.6826L28.5123 38.4845L29.831 31.8035L28.776 26.13Z" fill="#E27525" stroke="#E27525" stroke-width="0.105293" stroke-linecap="round" stroke-linejoin="round"/>
<path d="M29.8333 31.8038L28.5146 38.4847L29.4641 39.121L35.1607 34.667L35.3189 30.16L29.8333 31.8038Z" fill="#F5841F" stroke="#F5841F" stroke-width="0.105293" stroke-linecap="round" stroke-linejoin="round"/>
<path d="M16.3823 30.16L16.5406 34.667L22.1844 39.121L23.1338 38.4847L21.8679 31.8038L16.3823 30.16Z" fill="#F5841F" stroke="#F5841F" stroke-width="0.105293" stroke-linecap="round" stroke-linejoin="round"/>
<path d="M29.9391 45.2715L29.9918 43.4157L29.5171 42.9915H22.1853L21.7106 43.4157V45.2715L15.592 42.3552L17.7546 44.105L22.0798 47.1274H29.5698L33.895 44.105L36.0576 42.3552L29.9391 45.2715Z" fill="#C0AC9D" stroke="#C0AC9D" stroke-width="0.105293" stroke-linecap="round" stroke-linejoin="round"/>
<path d="M29.4622 39.1205L28.5127 38.4843H23.1326L22.1832 39.1205L21.7085 43.4155L22.1832 42.9913H29.5149L29.9896 43.4155L29.4622 39.1205Z" fill="#161616" stroke="#161616" stroke-width="0.105293" stroke-linecap="round" stroke-linejoin="round"/>
<path d="M48.98 16.2677L50.6151 8.31417L48.1888 0.890869L29.4639 14.8361L36.6901 20.9868L46.8174 23.9561L49.0855 21.3049L48.0833 20.6156L49.6657 19.184L48.4525 18.2826L50.0349 17.0631L48.98 16.2677Z" fill="#763E1A" stroke="#763E1A" stroke-width="0.105293" stroke-linecap="round" stroke-linejoin="round"/>
<path d="M1.03198 8.31429L2.66713 16.2678L1.6122 17.0632L3.1946 18.2827L1.98142 19.1841L3.56382 20.6158L2.56164 21.3051L4.82974 23.9562L15.0099 20.9869L22.1834 14.8362L3.45833 0.890991L1.03198 8.31429Z" fill="#763E1A" stroke="#763E1A" stroke-width="0.105293" stroke-linecap="round" stroke-linejoin="round"/>
<path d="M46.8163 23.9563L36.6891 20.9869L39.7483 25.653L35.1594 34.667L41.2252 34.561H50.2448L46.8163 23.9563Z" fill="#F5841F" stroke="#F5841F" stroke-width="0.105293" stroke-linecap="round" stroke-linejoin="round"/>
<path d="M15.0107 20.9869L4.83062 23.9563L1.45483 34.561H10.4745L16.5404 34.667L11.8987 25.653L15.0107 20.9869Z" fill="#F5841F" stroke="#F5841F" stroke-width="0.105293" stroke-linecap="round" stroke-linejoin="round"/>
<path d="M28.7763 26.1304L29.462 14.8364L32.4158 6.82983H19.282L22.183 14.8364L22.8687 26.1304L23.1325 29.683V38.4849H28.5126L28.5653 29.683L28.7763 26.1304Z" fill="#F5841F" stroke="#F5841F" stroke-width="0.105293" stroke-linecap="round" stroke-linejoin="round"/>
</svg>
