<svg width="265" height="247" viewBox="0 0 265 247" fill="none" xmlns="http://www.w3.org/2000/svg">
<rect width="265.827" height="248.313" fill="#F1F1F1"/>
<g opacity="0.06">
<path d="M180.717 137.209C178.417 137.809 175.917 139.009 175.017 141.409C174.217 143.609 175.017 146.109 177.317 146.909C178.517 147.309 179.817 147.209 181.017 146.909C182.117 146.709 183.217 146.309 184.117 145.809C186.117 144.709 187.517 142.509 186.617 140.209C185.517 137.409 182.317 136.409 179.617 137.309C179.017 137.509 179.217 138.509 179.917 138.309C181.917 137.709 184.317 138.109 185.417 140.009C186.417 141.809 185.617 143.709 184.017 144.809C182.517 145.809 180.317 146.409 178.517 146.209C177.517 146.109 176.617 145.609 176.117 144.809C175.717 144.009 175.617 143.109 175.917 142.209C176.517 139.909 178.917 138.809 181.017 138.209C181.617 138.009 181.317 137.109 180.717 137.209Z" fill="black"/>
<path d="M176.917 145.409C178.517 142.609 182.117 141.309 185.117 142.409C185.717 142.609 186.017 141.709 185.417 141.409C182.017 140.209 177.917 141.709 176.117 144.909C175.817 145.509 176.617 146.009 176.917 145.409Z" fill="black"/>
<path d="M175.617 140.609C173.917 142.109 173.517 144.709 174.417 146.709C175.417 148.809 177.517 150.109 179.817 150.309C184.717 150.809 190.117 146.109 188.817 141.009C188.217 138.409 185.617 136.509 182.917 136.909C182.317 137.009 182.517 138.009 183.217 137.909C185.217 137.609 187.117 139.009 187.717 140.909C188.317 142.909 187.717 145.109 186.317 146.609C183.717 149.609 178.217 150.709 175.717 147.009C174.517 145.209 174.717 142.809 176.317 141.309C176.817 140.909 176.117 140.209 175.617 140.609Z" fill="black"/>
<path d="M177.417 146.709C177.217 147.209 177.117 147.809 177.317 148.309C177.517 148.809 177.817 149.309 178.317 149.609C178.517 149.709 178.917 149.709 179.017 149.409C179.117 149.109 179.117 148.909 178.817 148.709C178.817 148.709 178.817 148.709 178.717 148.709C178.617 148.709 178.817 148.809 178.717 148.709L178.617 148.609L178.517 148.509C178.517 148.509 178.517 148.509 178.517 148.409C178.517 148.409 178.617 148.509 178.517 148.409C178.417 148.309 178.417 148.209 178.317 148.109C178.317 148.109 178.317 148.109 178.317 148.009C178.317 147.909 178.317 148.109 178.317 148.009C178.317 148.009 178.317 147.909 178.217 147.909V147.809C178.217 147.809 178.217 147.609 178.217 147.809C178.217 147.709 178.217 147.609 178.217 147.509V147.409C178.217 147.309 178.217 147.509 178.217 147.409V147.309C178.217 147.209 178.217 147.209 178.217 147.209C178.217 147.209 178.317 147.009 178.217 147.109C178.317 147.009 178.317 146.909 178.317 146.709C178.317 146.609 178.217 146.509 178.117 146.409C177.917 146.409 177.517 146.409 177.417 146.709Z" fill="black"/>
<path d="M181.517 146.909C181.717 147.809 182.217 148.709 183.017 149.309C183.217 149.509 183.517 149.509 183.717 149.309C183.917 149.109 183.917 148.809 183.717 148.609C183.517 148.509 183.417 148.309 183.217 148.209L183.117 148.109C183.117 148.109 183.117 148.109 183.017 148.009C183.017 148.009 183.117 148.109 183.017 148.009C182.917 147.909 182.917 147.809 182.817 147.709C182.717 147.609 182.717 147.509 182.617 147.409C182.617 147.409 182.617 147.309 182.517 147.309C182.517 147.309 182.517 147.309 182.517 147.209C182.517 147.109 182.517 147.309 182.517 147.209C182.417 147.009 182.417 146.809 182.317 146.609C182.217 146.309 181.917 146.209 181.717 146.309C181.617 146.409 181.517 146.609 181.517 146.909Z" fill="black"/>
<path d="M185.417 145.109C185.517 145.109 185.617 145.209 185.617 145.209C185.617 145.209 185.517 145.209 185.517 145.109C185.717 145.209 186.017 145.309 186.217 145.509L186.117 145.409C186.317 145.609 186.517 145.709 186.717 145.909L186.617 145.809C186.717 145.909 186.717 145.909 186.817 146.009C186.917 146.209 187.317 146.309 187.517 146.209C187.717 146.109 187.817 145.809 187.717 145.509C187.317 144.809 186.617 144.309 185.817 144.009C185.617 143.909 185.217 144.109 185.217 144.309C185.017 144.809 185.217 145.009 185.417 145.109Z" fill="black"/>
<path d="M186.517 141.509C186.617 141.509 186.717 141.509 186.817 141.509H186.917C186.917 141.509 186.917 141.509 187.017 141.509C187.117 141.509 187.017 141.509 187.017 141.509H187.117H187.217C187.317 141.509 187.417 141.509 187.417 141.609H187.517C187.517 141.609 187.517 141.609 187.617 141.609C187.517 141.609 187.517 141.609 187.617 141.609C187.717 141.609 187.817 141.709 187.817 141.709C187.917 141.709 188.017 141.809 188.017 141.809C188.017 141.809 188.017 141.809 188.117 141.809L188.217 141.909C188.417 142.109 188.717 142.109 188.917 141.909C189.117 141.709 189.117 141.409 188.917 141.209C188.317 140.609 187.417 140.309 186.517 140.409C186.217 140.409 186.017 140.609 186.017 140.909C186.017 141.309 186.217 141.609 186.517 141.509Z" fill="black"/>
<path d="M174.317 142.509C169.817 145.709 166.817 150.509 164.917 155.709C164.017 158.209 162.817 161.409 163.817 164.109C164.517 166.009 166.917 167.509 168.917 166.409C170.217 165.709 170.617 163.909 171.317 162.709C172.117 161.209 173.217 159.909 174.417 158.709C174.117 158.709 173.917 158.609 173.617 158.609C175.517 161.709 177.717 164.709 180.117 167.409C180.717 168.109 181.317 168.709 182.017 169.409C182.517 169.909 183.017 170.509 183.717 170.709C185.517 171.409 187.117 169.909 188.417 169.009C191.617 166.709 194.817 164.409 198.017 162.009C198.817 161.409 199.617 160.809 200.417 160.309C201.117 159.809 202.017 159.409 202.317 158.609C202.617 158.009 202.517 157.309 202.217 156.609C201.817 155.809 201.417 155.009 200.917 154.209C198.917 151.009 196.417 148.109 193.417 145.709C193.317 146.009 193.317 146.309 193.217 146.509C196.817 145.009 200.717 144.109 204.617 143.909C204.817 143.909 205.017 143.809 205.017 143.709C206.417 140.709 204.417 137.309 201.617 136.009C199.917 135.209 198.017 134.909 196.117 134.909C194.117 134.909 192.117 135.009 190.117 135.209C187.817 135.509 185.617 136.009 183.517 136.909C182.917 137.209 183.417 138.009 184.017 137.809C186.117 136.909 188.517 136.409 190.817 136.209C193.017 136.009 195.217 135.809 197.417 136.009C199.417 136.209 201.617 136.709 203.017 138.309C204.217 139.609 204.917 141.609 204.217 143.309C204.317 143.209 204.517 143.109 204.617 143.109C200.617 143.309 196.717 144.109 193.017 145.709C192.717 145.809 192.417 146.309 192.817 146.509C195.217 148.409 197.417 150.709 199.117 153.209C199.517 153.809 199.917 154.409 200.217 154.909C200.617 155.609 201.117 156.409 201.417 157.209C201.717 158.209 201.017 158.609 200.317 159.109C199.517 159.709 198.817 160.209 198.017 160.809C195.117 162.909 192.217 165.009 189.317 167.109C188.617 167.609 187.817 168.209 187.117 168.709C186.417 169.209 185.717 169.809 184.817 169.909C184.017 170.009 183.517 169.509 182.917 169.009C182.317 168.409 181.717 167.709 181.117 167.109C178.617 164.409 176.417 161.409 174.417 158.209C174.217 157.909 173.917 157.909 173.617 158.109C172.717 159.009 171.817 160.009 171.117 161.109C170.417 162.209 169.817 163.309 169.317 164.509C168.817 165.509 168.117 166.109 166.917 165.909C165.817 165.609 165.017 164.909 164.717 163.809C164.317 162.509 164.517 161.009 164.817 159.709C165.117 158.509 165.417 157.409 165.817 156.309C166.617 153.909 167.717 151.609 169.117 149.509C170.617 147.209 172.517 145.109 174.817 143.509C175.317 143.009 174.817 142.109 174.317 142.509Z" fill="black"/>
<path d="M163.617 164.209C163.217 164.909 163.117 165.709 163.317 166.509C163.517 167.309 164.017 167.909 164.617 168.409C165.817 169.309 167.917 169.609 169.017 168.609C169.617 168.009 169.817 167.009 169.317 166.309C169.117 166.109 168.917 166.009 168.617 166.109C168.417 166.209 168.317 166.609 168.417 166.809C168.717 167.309 168.417 167.909 167.817 168.109C167.117 168.409 166.417 168.209 165.717 168.009C165.117 167.809 164.517 167.309 164.217 166.709C163.917 166.109 163.917 165.309 164.317 164.809C164.817 164.109 163.917 163.609 163.617 164.209Z" fill="black"/>
<path d="M204.217 138.409C204.617 138.009 205.217 138.209 205.617 138.409C206.217 138.809 206.417 139.509 206.517 140.109C206.617 140.809 206.517 141.609 206.317 142.309C206.117 142.909 205.517 143.509 204.817 143.309C204.217 143.209 203.917 144.109 204.517 144.309C205.317 144.509 206.117 144.209 206.617 143.609C207.217 143.009 207.417 142.109 207.517 141.309C207.617 139.809 207.317 138.009 205.717 137.409C204.917 137.109 204.117 137.209 203.517 137.709C203.017 138.109 203.717 138.809 204.217 138.409Z" fill="black"/>
<path d="M184.617 171.209C185.617 172.409 187.017 173.709 188.717 173.309C189.517 173.109 190.217 172.609 190.817 172.009C191.617 171.309 192.417 170.609 193.217 169.909C194.817 168.509 196.517 167.209 198.317 165.909C199.117 165.309 200.017 164.809 200.817 164.209C201.517 163.709 202.217 163.209 202.717 162.409C203.517 161.109 203.217 159.109 201.717 158.609C201.117 158.409 200.817 159.309 201.417 159.609C202.117 159.909 202.317 160.809 202.117 161.509C201.817 162.409 200.917 163.009 200.217 163.509C198.417 164.709 196.717 166.009 195.017 167.309C193.317 168.609 191.717 170.009 190.117 171.509C189.417 172.109 188.617 172.709 187.617 172.409C186.717 172.109 186.017 171.309 185.417 170.609C184.917 170.009 184.217 170.709 184.617 171.209Z" fill="black"/>
<path d="M188.417 168.709C188.617 169.609 189.217 170.409 190.017 170.909C190.217 171.009 190.617 171.009 190.717 170.709C190.817 170.509 190.817 170.209 190.517 170.009C190.417 170.009 190.317 169.909 190.317 169.909C190.317 169.909 190.317 169.909 190.217 169.909C190.117 169.809 190.317 170.009 190.217 169.909L190.117 169.809C190.017 169.709 190.017 169.709 189.917 169.609L189.817 169.509C189.917 169.609 189.817 169.509 189.817 169.509C189.717 169.309 189.617 169.209 189.517 169.009C189.517 169.009 189.517 168.909 189.517 169.009C189.517 169.009 189.517 169.009 189.517 168.909C189.517 168.909 189.517 168.809 189.417 168.809C189.417 168.709 189.317 168.609 189.317 168.509C189.217 168.209 188.917 168.109 188.717 168.209C188.417 168.109 188.317 168.409 188.417 168.709Z" fill="black"/>
<path d="M191.217 166.409C191.817 167.009 192.417 167.609 193.017 168.209C193.217 168.409 193.517 168.409 193.717 168.209C193.917 168.009 193.917 167.709 193.717 167.509C193.117 166.909 192.517 166.309 191.917 165.709C191.717 165.509 191.417 165.509 191.217 165.709C191.017 165.809 191.017 166.209 191.217 166.409Z" fill="black"/>
<path d="M194.817 164.409C195.517 164.909 196.117 165.509 196.817 166.009C196.917 166.109 197.017 166.109 197.217 166.109C197.317 166.109 197.517 166.009 197.617 166.009C197.817 165.809 197.817 165.509 197.617 165.309C196.917 164.809 196.317 164.209 195.617 163.709C195.517 163.609 195.417 163.609 195.217 163.609C195.117 163.609 194.917 163.709 194.817 163.709C194.617 163.809 194.617 164.209 194.817 164.409Z" fill="black"/>
<path d="M198.317 161.509C198.517 161.609 198.617 161.809 198.717 161.909C198.817 162.009 198.817 162.109 198.917 162.109L199.017 162.209C199.017 162.209 199.017 162.209 199.117 162.309C199.117 162.309 199.217 162.409 199.117 162.309C199.117 162.209 199.117 162.309 199.117 162.309C199.117 162.309 199.117 162.309 199.117 162.409L199.217 162.509C199.317 162.609 199.317 162.709 199.417 162.809C199.517 163.009 199.617 163.209 199.717 163.309C199.817 163.509 200.217 163.609 200.417 163.509C200.617 163.309 200.717 163.109 200.617 162.809C200.217 162.009 199.717 161.309 199.017 160.809C198.917 160.709 198.817 160.709 198.617 160.709C198.517 160.709 198.317 160.809 198.217 160.809C198.217 161.009 198.117 161.409 198.317 161.509Z" fill="black"/>
</g>
<g opacity="0.06">
<path d="M48.0861 160.709C51.7861 160.309 55.3861 159.909 59.0861 159.509C60.6861 159.309 62.7861 158.709 64.0861 159.909C64.5861 160.409 64.9861 160.909 65.4861 161.409C65.9861 161.909 66.6861 162.209 67.2861 162.509C70.2861 163.509 73.2861 162.009 75.7861 160.309C77.8861 158.909 80.5861 157.209 80.8861 154.509C81.0861 152.809 79.9861 151.309 80.1861 149.609C80.3861 148.109 81.3861 146.609 82.8861 146.009C82.6861 146.009 82.5861 145.909 82.3861 145.909C83.0861 146.609 83.0861 147.809 83.3861 148.709C83.6861 149.709 84.4861 150.509 85.6861 150.309C86.9861 150.109 88.2861 149.009 89.2861 148.209C90.3861 147.409 91.3861 146.509 92.2861 145.409C93.0861 144.409 93.6861 143.309 93.8861 142.109C94.1861 140.709 93.7861 139.409 93.3861 138.009C93.1861 137.309 92.9861 136.609 93.1861 135.809C93.3861 135.109 93.8861 134.509 94.0861 133.909C94.5861 132.809 93.9861 131.709 92.7861 131.609C91.9861 131.509 91.0861 131.709 90.2861 131.809C89.3861 131.909 88.4861 132.009 87.5861 132.009C85.7861 132.209 83.9861 132.309 82.1861 132.509C78.5861 132.809 74.8861 133.109 71.2861 133.409C68.4861 133.609 65.1861 134.109 63.9861 137.009C63.4861 138.209 63.5861 139.609 64.4861 140.509C65.2861 141.409 66.5861 141.509 67.4861 140.709C67.9861 140.209 68.3861 139.609 68.7861 139.009C69.2861 138.409 69.9861 138.109 70.6861 137.909C72.3861 137.409 74.2861 137.509 75.9861 137.309C80.0861 137.009 84.0861 136.709 88.1861 136.309C88.0861 136.009 87.9861 135.709 87.8861 135.409C84.4861 137.509 81.2861 139.909 78.1861 142.409C76.5861 143.709 75.0861 145.009 73.6861 146.409C72.2861 147.709 70.9861 149.009 69.5861 150.309C68.1861 151.609 66.5861 152.709 64.7861 153.509C62.9861 154.309 61.0861 154.709 59.0861 154.909C57.1861 155.109 55.2861 155.109 53.2861 155.109C51.4861 155.109 49.5861 155.109 47.7861 155.709C46.0861 156.209 44.5861 157.209 43.6861 158.809C42.8861 160.209 42.6861 161.909 43.4861 163.409C43.5861 163.509 43.7861 163.709 43.8861 163.609C45.6861 163.409 47.1861 162.109 47.4861 160.309C47.5861 159.709 46.5861 159.409 46.4861 160.009C46.2861 161.309 45.2861 162.509 43.8861 162.609C43.9861 162.709 44.1861 162.809 44.2861 162.809C43.5861 161.509 43.8861 160.009 44.6861 158.809C45.6861 157.409 47.2861 156.709 48.8861 156.309C50.6861 155.909 52.4861 156.009 54.2861 156.009C56.0861 156.009 57.9861 155.909 59.7861 155.709C61.5861 155.509 63.2861 155.109 64.8861 154.409C66.5861 153.709 67.9861 152.709 69.3861 151.509C70.7861 150.409 71.9861 149.109 73.2861 147.909C74.6861 146.609 76.0861 145.309 77.5861 144.009C80.8861 141.209 84.4861 138.609 88.0861 136.309C88.4861 136.109 88.3861 135.309 87.7861 135.409C84.5861 135.709 81.3861 135.909 78.1861 136.209C76.5861 136.309 75.0861 136.409 73.4861 136.609C72.2861 136.709 70.9861 136.709 69.7861 137.109C68.6861 137.409 67.7861 138.009 67.0861 139.009C66.7861 139.409 66.4861 140.009 65.9861 140.209C65.3861 140.509 64.6861 140.009 64.3861 139.509C63.6861 138.409 64.3861 137.009 65.1861 136.109C66.1861 135.109 67.5861 134.709 68.8861 134.509C70.3861 134.309 71.9861 134.209 73.5861 134.109C75.1861 134.009 76.7861 133.809 78.3861 133.709C81.4861 133.409 84.6861 133.209 87.7861 132.909C88.5861 132.809 89.3861 132.809 90.0861 132.709C90.7861 132.609 91.6861 132.409 92.2861 132.609C93.0861 132.809 92.4861 133.709 92.2861 134.109C91.9861 134.609 91.6861 135.209 91.5861 135.809C91.3861 137.109 91.8861 138.309 92.1861 139.509C92.4861 140.709 92.4861 141.909 91.9861 143.009C90.9861 145.409 88.4861 147.209 86.3861 148.609C85.7861 149.009 84.8861 149.609 84.2861 149.109C83.8861 148.809 83.7861 148.309 83.6861 147.909C83.4861 146.909 83.2861 145.909 82.5861 145.109C82.4861 145.009 82.2861 144.909 82.0861 145.009C79.6861 146.009 78.2861 148.509 78.7861 151.109C78.8861 151.809 79.1861 152.509 79.3861 153.209C79.5861 154.009 79.3861 154.809 79.0861 155.509C78.4861 156.709 77.2861 157.709 76.1861 158.509C73.7861 160.209 70.6861 162.309 67.5861 161.609C66.8861 161.409 66.2861 161.109 65.6861 160.709C65.0861 160.209 64.6861 159.509 64.0861 159.009C62.7861 158.009 61.2861 158.209 59.7861 158.409C55.6861 158.809 51.5861 159.309 47.5861 159.709C47.4861 159.709 47.4861 160.809 48.0861 160.709Z" fill="black"/>
<path d="M73.0861 148.909C71.8861 153.009 71.1861 157.109 70.7861 161.309C70.6861 161.909 71.6861 161.909 71.7861 161.309C72.1861 157.209 72.9861 153.109 74.0861 149.109C74.1861 148.609 73.1861 148.309 73.0861 148.909Z" fill="black"/>
<path d="M75.5861 147.909C74.9861 152.009 74.3861 156.109 73.7861 160.209C73.6861 160.809 74.6861 161.109 74.7861 160.509C75.3861 156.409 75.9861 152.309 76.5861 148.209C76.6861 147.509 75.6861 147.209 75.5861 147.909Z" fill="black"/>
<path d="M87.7861 139.609C86.8861 142.909 86.0861 146.109 85.1861 149.409C84.9861 150.009 85.9861 150.309 86.1861 149.709C87.0861 146.409 87.8861 143.209 88.7861 139.909C88.9861 139.209 87.9861 138.909 87.7861 139.609Z" fill="black"/>
<path d="M89.886 139.609C89.186 142.009 88.686 144.409 88.286 146.809C88.286 147.109 88.386 147.309 88.586 147.409C88.786 147.509 89.186 147.309 89.186 147.109C89.486 144.709 90.086 142.309 90.786 139.909C90.986 139.309 89.986 139.009 89.886 139.609Z" fill="black"/>
</g>
<g opacity="0.06">
<path d="M126.286 200.009C117.386 201.609 108.686 207.409 105.886 216.209C104.586 220.309 104.586 225.009 105.986 229.109C107.486 233.509 110.686 236.909 114.886 239.009C119.486 241.309 124.986 242.209 130.086 241.709C134.786 241.209 139.386 239.509 142.886 236.209C148.886 230.509 151.586 221.109 148.486 213.309C145.386 205.409 137.086 199.809 128.586 199.809C127.586 199.809 126.486 199.909 125.486 200.009C124.886 200.109 125.086 201.109 125.786 201.009C133.786 199.809 142.286 204.109 146.286 211.009C150.386 218.009 149.086 227.209 144.086 233.409C141.386 236.809 137.686 239.109 133.586 240.109C128.686 241.309 123.386 240.909 118.686 239.409C114.286 238.009 110.286 235.309 108.086 231.209C106.086 227.509 105.586 223.209 106.286 219.109C107.786 210.309 115.286 204.009 123.486 201.709C124.486 201.409 125.586 201.209 126.586 201.009C127.186 200.909 126.886 199.909 126.286 200.009Z" fill="black"/>
<path d="M117.086 229.309C123.186 225.509 129.386 221.709 135.686 218.209C135.486 218.209 135.286 218.109 135.086 218.109C136.186 219.009 136.086 220.809 136.186 222.109C136.286 223.909 136.386 225.609 136.386 227.409C136.486 230.909 136.386 234.409 136.086 237.809C135.986 238.409 136.986 238.409 137.086 237.809C137.386 234.109 137.486 230.409 137.386 226.609C137.386 224.809 137.286 222.909 137.086 221.109C136.986 219.809 136.886 218.209 135.786 217.309C135.586 217.209 135.386 217.109 135.186 217.209C128.886 220.809 122.686 224.509 116.586 228.309C116.086 228.809 116.586 229.709 117.086 229.309Z" fill="black"/>
<path d="M107.686 230.509C113.886 234.209 120.086 238.009 126.286 241.709C126.886 242.009 127.386 241.209 126.786 240.809C120.586 237.109 114.386 233.309 108.186 229.609C107.586 229.309 107.086 230.209 107.686 230.509Z" fill="black"/>
<path d="M106.286 223.509C113.986 227.609 121.586 232.009 128.886 236.809C130.986 238.109 132.986 239.509 135.086 240.909C135.586 241.309 136.086 240.409 135.586 240.009C128.386 235.109 120.886 230.509 113.286 226.209C111.086 225.009 108.986 223.809 106.786 222.709C106.186 222.409 105.686 223.209 106.286 223.509Z" fill="black"/>
<path d="M106.386 218.109C110.686 221.309 115.286 224.009 120.086 226.409C120.686 226.709 121.186 225.809 120.586 225.509C115.786 223.109 111.186 220.409 106.886 217.209C106.286 216.809 105.786 217.709 106.386 218.109Z" fill="black"/>
<path d="M108.586 218.709C111.986 216.609 115.486 214.709 119.086 213.109C120.886 212.309 122.786 211.509 124.686 210.809C124.886 210.709 125.086 210.609 125.186 210.909C125.286 211.109 125.186 211.409 125.186 211.609C125.186 212.209 125.186 212.809 125.186 213.309C125.186 214.309 125.286 215.409 125.286 216.409C125.386 218.809 125.386 221.309 125.486 223.709C125.486 224.309 126.486 224.309 126.486 223.709C126.386 221.309 126.386 218.909 126.286 216.509C126.286 215.309 126.186 214.209 126.186 213.009C126.186 212.409 126.186 211.809 126.186 211.309C126.186 210.909 126.186 210.509 125.986 210.209C125.486 209.409 124.486 209.909 123.786 210.109C122.786 210.509 121.686 210.909 120.686 211.309C118.686 212.109 116.686 213.009 114.786 214.009C112.486 215.209 110.286 216.409 108.086 217.809C107.486 218.209 108.086 219.109 108.586 218.709Z" fill="black"/>
<path d="M124.086 211.209C121.286 215.309 118.586 219.409 115.986 223.609C115.686 224.109 116.486 224.609 116.886 224.109C119.486 219.909 122.186 215.809 124.986 211.709C125.286 211.209 124.486 210.709 124.086 211.209Z" fill="black"/>
<path d="M134.686 218.909C130.986 223.809 127.886 229.209 125.586 234.909C125.386 235.509 126.286 235.809 126.586 235.209C128.886 229.609 131.886 224.309 135.586 219.509C135.986 218.909 135.086 218.409 134.686 218.909Z" fill="black"/>
<path d="M117.286 222.609C117.986 223.909 118.686 225.209 119.486 226.609C119.786 227.209 120.686 226.709 120.386 226.109C119.686 224.809 118.986 223.509 118.186 222.109C117.886 221.509 116.986 222.009 117.286 222.609Z" fill="black"/>
<path d="M119.386 222.109C119.786 223.309 120.086 224.509 120.486 225.709C120.586 226.009 120.786 226.109 121.086 226.009C121.386 225.909 121.486 225.609 121.386 225.409C120.986 224.209 120.686 223.009 120.286 221.809C120.186 221.509 119.986 221.409 119.686 221.509C119.486 221.609 119.286 221.909 119.386 222.109Z" fill="black"/>
<path d="M120.586 219.209C120.886 220.809 121.486 222.309 122.286 223.709C122.586 224.209 123.486 223.709 123.186 223.209C122.386 221.909 121.786 220.509 121.586 219.009C121.486 218.709 121.186 218.609 120.986 218.709C120.686 218.709 120.586 218.909 120.586 219.209Z" fill="black"/>
<path d="M121.986 217.309C122.086 219.009 122.586 220.709 123.386 222.309C123.686 222.909 124.586 222.409 124.286 221.809C123.486 220.409 123.086 218.909 122.986 217.309C122.986 216.609 121.986 216.609 121.986 217.309Z" fill="black"/>
<path d="M123.186 215.709C123.686 216.409 124.186 217.109 124.586 217.909C124.686 218.109 124.986 218.209 125.286 218.109C125.486 218.009 125.586 217.609 125.486 217.409C124.986 216.709 124.486 216.009 124.086 215.209C123.986 215.009 123.686 214.909 123.386 215.009C123.086 215.209 122.986 215.509 123.186 215.709Z" fill="black"/>
<path d="M128.986 231.009C129.886 232.909 130.886 234.809 131.786 236.609C132.086 237.209 132.886 236.709 132.686 236.109C131.786 234.209 130.786 232.309 129.886 230.509C129.586 229.909 128.786 230.409 128.986 231.009Z" fill="black"/>
<path d="M130.686 227.509C131.786 230.409 132.986 233.309 134.086 236.209C134.286 236.809 135.286 236.509 135.086 235.909C133.986 233.009 132.786 230.109 131.686 227.209C131.386 226.609 130.486 226.909 130.686 227.509Z" fill="black"/>
<path d="M132.086 225.309C132.986 227.609 133.886 229.909 134.786 232.209C134.886 232.509 135.086 232.609 135.386 232.509C135.586 232.409 135.786 232.109 135.686 231.909C134.786 229.609 133.886 227.309 132.986 225.009C132.886 224.709 132.686 224.609 132.386 224.709C132.286 224.809 131.986 225.109 132.086 225.309Z" fill="black"/>
<path d="M133.886 223.509C134.286 224.509 134.586 225.409 134.986 226.409C135.086 226.609 135.286 226.809 135.586 226.709C135.786 226.609 135.986 226.309 135.886 226.109C135.486 225.109 135.186 224.209 134.786 223.209C134.686 223.009 134.486 222.809 134.186 222.909C133.986 223.009 133.786 223.309 133.886 223.509Z" fill="black"/>
<path d="M126.986 202.609C125.786 203.009 125.086 204.209 124.886 205.409C124.786 206.609 125.386 207.909 126.486 208.409C127.686 208.909 128.986 208.609 129.986 207.809C130.986 207.009 131.286 205.509 130.586 204.309C129.786 202.909 128.086 202.209 126.686 202.809C126.486 202.909 126.386 203.309 126.486 203.509C126.686 203.809 126.886 203.809 127.186 203.709C127.586 203.509 127.986 203.609 128.486 203.709C128.886 203.809 129.286 204.209 129.586 204.509C129.886 204.909 130.086 205.309 129.986 205.809C129.986 206.209 129.786 206.509 129.486 206.809C129.286 207.009 129.186 207.009 128.986 207.209C128.786 207.309 128.686 207.409 128.386 207.409C128.086 207.509 127.986 207.509 127.786 207.509C127.686 207.509 127.586 207.509 127.486 207.509C127.386 207.509 127.486 207.509 127.486 207.509C127.486 207.509 127.486 207.509 127.386 207.509C127.286 207.509 127.286 207.509 127.186 207.509C126.986 207.409 126.886 207.409 126.586 207.209C126.486 207.109 126.286 206.909 126.186 206.809C126.086 206.709 126.086 206.609 125.986 206.509C125.986 206.409 125.886 206.409 125.886 206.209C125.886 206.109 125.786 206.009 125.786 205.909V205.809C125.786 205.909 125.786 205.809 125.786 205.809C125.786 205.709 125.786 205.709 125.786 205.609C125.786 205.109 125.886 204.609 126.086 204.209C126.086 204.109 126.186 204.109 126.186 204.009C126.186 203.909 126.286 203.909 126.286 203.909C126.386 203.809 126.486 203.709 126.586 203.609C126.686 203.509 126.986 203.309 127.186 203.309C127.486 203.209 127.586 203.009 127.486 202.709C127.486 202.709 127.286 202.509 126.986 202.609Z" fill="black"/>
<path d="M138.486 210.709C137.286 211.309 136.086 212.309 135.786 213.709C135.486 215.009 136.086 216.509 137.386 217.009C138.686 217.509 140.086 217.009 140.886 216.009C141.686 214.909 141.986 213.409 141.586 212.109C141.386 211.409 140.886 210.709 140.086 210.409C139.386 210.209 138.586 210.409 138.086 211.009C137.886 211.209 138.086 211.609 138.286 211.709C138.586 211.909 138.786 211.709 138.986 211.509C139.186 211.209 139.686 211.309 139.886 211.409C140.286 211.609 140.486 212.009 140.586 212.409C140.886 213.309 140.686 214.509 140.086 215.309C139.586 216.009 138.586 216.409 137.786 216.109C136.886 215.809 136.486 214.909 136.686 214.009C136.886 212.809 137.886 212.009 138.986 211.509C139.186 211.409 139.286 211.009 139.186 210.809C138.986 210.609 138.686 210.609 138.486 210.709Z" fill="black"/>
</g>
<g opacity="0.06">
<path d="M48.9861 40.2086C49.8861 33.7086 54.3861 27.9086 60.5861 25.6086C67.0861 23.1086 74.9861 24.5086 79.8861 29.6086C81.1861 30.9086 82.1861 32.5086 82.8861 34.3086C83.1861 35.1086 83.3861 36.0086 83.4861 36.9086C83.4861 37.2086 83.6861 39.5086 83.0861 39.5086C82.4861 39.5086 82.4861 40.5086 83.0861 40.5086C84.7861 40.6086 84.4861 37.6086 84.3861 36.6086C84.1861 34.8086 83.5861 33.2086 82.6861 31.6086C80.7861 28.4086 77.6861 26.1086 74.2861 24.8086C67.0861 22.1086 58.7861 23.8086 53.3861 29.4086C50.5861 32.3086 48.6861 36.1086 48.0861 40.1086C47.8861 40.5086 48.8861 40.8086 48.9861 40.2086Z" fill="black"/>
<path d="M48.186 39.7086C52.186 43.5086 57.986 44.1086 63.286 44.2086C68.886 44.3086 74.786 44.0086 79.886 41.5086C80.586 41.1086 81.286 40.7086 81.986 40.3086C82.286 40.1086 82.586 39.8086 82.986 39.7086C83.286 39.6086 83.586 39.5086 83.786 39.2086C84.086 38.7086 83.886 38.1086 83.286 38.1086C82.786 38.1086 82.486 38.6086 82.686 39.1086C82.986 39.7086 83.886 39.2086 83.586 38.6086V38.5086C83.586 38.7086 83.586 38.8086 83.586 39.0086C83.486 39.0086 83.286 39.0086 83.186 39.0086C83.186 38.9086 83.086 38.8086 83.086 38.6086C83.086 38.6086 82.486 38.8086 82.386 38.8086C82.186 38.9086 81.986 39.1086 81.786 39.3086C81.286 39.7086 80.686 40.0086 80.186 40.3086C79.186 40.9086 78.086 41.3086 76.986 41.7086C74.686 42.5086 72.286 42.8086 69.886 43.0086C67.486 43.2086 65.186 43.2086 62.786 43.2086C60.486 43.1086 58.186 43.0086 55.986 42.4086C53.486 41.8086 51.086 40.7086 49.186 39.0086C48.386 38.6086 47.686 39.3086 48.186 39.7086Z" fill="black"/>
<path d="M47.786 37.6086C46.486 37.6086 45.386 38.4086 44.786 39.5086C44.086 40.8086 44.0861 42.3086 44.5861 43.6086C44.8861 44.3086 45.1861 45.0086 45.5861 45.7086C45.8861 46.3086 46.286 46.8086 46.886 47.2086C47.386 47.5086 47.9861 47.8086 48.5861 47.5086C49.2861 47.2086 49.286 46.4086 49.286 45.8086C49.286 43.8086 49.186 41.8086 49.186 39.7086C49.186 39.1086 48.186 39.1086 48.186 39.7086C48.186 41.5086 48.286 43.2086 48.286 45.0086C48.286 45.4086 48.386 45.9086 48.286 46.3086C48.286 46.6086 48.086 46.6086 47.786 46.5086C47.186 46.3086 46.786 45.7086 46.486 45.1086C45.786 43.8086 44.986 42.3086 45.286 40.8086C45.586 39.6086 46.486 38.5086 47.786 38.5086C48.486 38.6086 48.486 37.6086 47.786 37.6086Z" fill="black"/>
<path d="M47.886 48.5086C53.886 53.5086 61.986 53.8086 69.286 52.7086C71.686 52.3086 74.086 51.8086 76.486 51.3086C77.086 51.2086 76.886 50.2086 76.186 50.3086C67.186 52.2086 56.286 54.2086 48.486 47.8086C48.086 47.4086 47.386 48.1086 47.886 48.5086Z" fill="black"/>
<path d="M75.286 43.2086C76.186 45.3086 76.686 47.5086 76.586 49.8086C76.586 50.0086 76.686 50.1086 76.786 50.2086C78.086 50.9086 79.486 50.5086 80.686 49.9086C81.886 49.3086 83.086 48.6086 84.086 47.7086C85.886 46.1086 86.986 43.8086 86.086 41.4086C85.686 40.3086 84.786 39.4086 83.586 39.1086C82.986 38.9086 82.686 39.9086 83.286 40.1086C84.386 40.4086 84.986 41.3086 85.186 42.3086C85.486 43.5086 85.186 44.6086 84.486 45.6086C83.686 46.8086 82.486 47.6086 81.286 48.3086C80.086 49.0086 78.486 50.0086 77.186 49.2086C77.286 49.3086 77.386 49.5086 77.386 49.6086C77.486 47.1086 76.986 44.7086 75.986 42.5086C75.886 42.1086 74.986 42.6086 75.286 43.2086Z" fill="black"/>
<path d="M54.386 38.1086C58.986 40.9086 65.086 40.4086 69.286 37.0086C69.786 36.6086 69.086 35.9086 68.586 36.3086C64.786 39.4086 59.086 39.7086 54.886 37.2086C54.286 36.9086 53.786 37.8086 54.386 38.1086Z" fill="black"/>
<path d="M56.7861 32.3086C56.3861 33.1086 56.1861 34.1086 56.3861 35.0086C56.4861 35.3086 56.8861 35.4086 57.0861 35.3086C58.5861 34.6086 59.2861 32.6086 58.5861 31.1086C58.4861 30.8086 57.9861 30.8086 57.7861 31.0086C56.8861 31.8086 56.4861 33.2086 56.7861 34.4086C56.8861 34.9086 57.5861 34.9086 57.7861 34.4086C57.8861 34.1086 57.9861 33.7086 58.0861 33.4086C58.2861 32.8086 57.2861 32.5086 57.0861 33.1086C56.9861 33.4086 56.8861 33.8086 56.7861 34.1086C57.0861 34.1086 57.3861 34.1086 57.7861 34.1086C57.6861 33.7086 57.6861 33.3086 57.7861 32.8086C57.7861 32.7086 57.7861 32.7086 57.8861 32.6086V32.5086C57.9861 32.4086 57.9861 32.3086 58.0861 32.2086C58.1861 32.0086 58.3861 31.9086 58.5861 31.7086C58.2861 31.7086 58.0861 31.6086 57.7861 31.6086C57.8861 31.7086 57.7861 31.5086 57.7861 31.6086V31.7086C57.7861 31.8086 57.7861 31.9086 57.8861 31.9086V32.0086C57.8861 32.1086 57.8861 31.9086 57.8861 32.0086C57.8861 32.1086 57.8861 32.1086 57.8861 32.2086C57.8861 32.3086 57.8861 32.4086 57.8861 32.4086V32.5086C57.8861 32.4086 57.8861 32.5086 57.8861 32.5086C57.8861 32.7086 57.7861 32.8086 57.7861 33.0086V33.1086C57.7861 33.0086 57.7861 33.1086 57.7861 33.1086C57.7861 33.2086 57.6861 33.2086 57.6861 33.3086C57.6861 33.4086 57.5861 33.4086 57.5861 33.5086C57.4861 33.6086 57.6861 33.4086 57.5861 33.5086C57.5861 33.5086 57.5861 33.6086 57.4861 33.6086C57.3861 33.7086 57.3861 33.7086 57.2861 33.8086C57.2861 33.8086 57.2861 33.8086 57.1861 33.9086C57.1861 33.9086 57.0861 34.0086 57.1861 33.9086C57.0861 34.0086 56.8861 34.1086 56.7861 34.2086C56.9861 34.3086 57.2861 34.4086 57.4861 34.5086C57.3861 33.9086 57.3861 33.2086 57.7861 32.6086C57.8861 32.4086 57.8861 32.1086 57.5861 31.9086C57.2861 32.0086 56.8861 32.0086 56.7861 32.3086Z" fill="black"/>
<path d="M63.386 32.5086C62.386 33.5086 62.186 35.2086 62.886 36.4086C63.086 36.7086 63.486 36.7086 63.786 36.4086C64.586 35.3086 64.886 33.8086 64.486 32.4086C64.386 32.0086 63.986 31.9086 63.686 32.2086C62.986 32.8086 62.586 33.7086 62.586 34.6086C62.586 34.9086 62.786 35.1086 63.086 35.1086C63.386 35.1086 63.586 34.9086 63.586 34.6086C63.586 34.3086 63.686 33.9086 63.786 33.7086C63.986 33.4086 64.086 33.1086 64.386 32.9086C64.086 32.8086 63.786 32.8086 63.586 32.7086C63.686 33.0086 63.786 33.3086 63.786 33.5086C63.786 33.7086 63.786 33.8086 63.786 34.0086C63.786 34.2086 63.786 34.3086 63.786 34.4086C63.686 35.0086 63.486 35.5086 63.086 36.0086C63.386 36.0086 63.686 36.0086 63.986 36.0086C63.986 35.9086 63.886 35.9086 63.886 35.8086V35.7086C63.886 35.6086 63.786 35.4086 63.786 35.3086V35.2086C63.786 35.2086 63.786 35.1086 63.786 35.2086C63.786 35.1086 63.786 35.1086 63.786 35.0086C63.786 34.9086 63.786 34.7086 63.786 34.6086C63.786 34.5086 63.786 34.7086 63.786 34.6086V34.5086C63.786 34.4086 63.786 34.4086 63.786 34.3086C63.786 34.2086 63.786 34.2086 63.886 34.1086V34.0086C63.886 33.9086 63.886 34.1086 63.886 34.0086C63.986 33.7086 64.086 33.6086 64.286 33.4086C64.486 32.8086 63.786 32.1086 63.386 32.5086Z" fill="black"/>
<path d="M52.086 21.6086C53.386 23.5086 54.686 25.5086 56.086 27.4086C56.486 27.9086 57.286 27.4086 56.986 26.9086C55.686 25.0086 54.386 23.0086 52.986 21.1086C52.686 20.5086 51.786 21.0086 52.086 21.6086Z" fill="black"/>
<path d="M49.586 18.6086C48.986 19.4086 48.986 20.7086 49.586 21.6086C49.886 22.0086 50.386 22.4086 50.886 22.5086C51.386 22.6086 51.886 22.6086 52.386 22.4086C52.886 22.2086 53.286 21.9086 53.586 21.4086C53.886 20.9086 53.886 20.4086 53.786 19.9086C53.586 18.9086 52.586 18.0086 51.486 18.2086C50.286 18.4086 49.386 19.8086 49.886 20.9086C49.986 21.1086 50.186 21.3086 50.486 21.2086C50.686 21.1086 50.986 20.8086 50.786 20.6086C50.786 20.5086 50.686 20.4086 50.686 20.3086C50.686 20.3086 50.686 20.4086 50.686 20.3086V20.2086C50.686 20.1086 50.686 20.1086 50.686 20.0086C50.686 20.0086 50.686 20.0086 50.686 19.9086C50.686 20.0086 50.686 19.9086 50.686 19.9086V19.8086V19.7086C50.686 19.8086 50.686 19.7086 50.686 19.6086C50.686 19.6086 50.686 19.5086 50.786 19.5086C50.786 19.5086 50.886 19.3086 50.786 19.4086C50.886 19.3086 50.886 19.3086 50.986 19.2086L51.086 19.1086C51.086 19.1086 51.186 19.1086 51.186 19.0086C51.186 19.0086 51.286 19.0086 51.286 18.9086C51.286 18.9086 51.286 18.9086 51.386 18.9086C51.286 19.0086 51.386 18.9086 51.386 18.9086H51.486C51.486 18.9086 51.686 18.9086 51.586 18.9086C51.486 18.9086 51.686 18.9086 51.686 18.9086C51.786 18.9086 51.786 18.9086 51.886 18.9086C51.786 18.9086 51.886 18.9086 51.886 18.9086H51.986C52.086 18.9086 51.886 18.9086 51.986 18.9086C51.986 18.9086 52.086 18.9086 52.086 19.0086C52.086 19.0086 52.186 19.0086 52.186 19.1086C52.086 19.1086 52.186 19.1086 52.186 19.1086C52.286 19.2086 52.286 19.2086 52.386 19.3086C52.386 19.4086 52.386 19.2086 52.386 19.3086C52.386 19.3086 52.386 19.4086 52.486 19.4086C52.486 19.4086 52.486 19.5086 52.586 19.5086C52.586 19.5086 52.586 19.5086 52.586 19.6086C52.586 19.6086 52.586 19.5086 52.586 19.6086C52.586 19.7086 52.686 19.8086 52.686 19.9086C52.686 19.9086 52.686 20.1086 52.686 20.0086C52.686 19.9086 52.686 20.0086 52.686 20.0086V20.1086V20.2086C52.686 20.2086 52.686 20.2086 52.686 20.3086C52.686 20.4086 52.686 20.2086 52.686 20.3086C52.686 20.4086 52.686 20.5086 52.586 20.6086C52.586 20.7086 52.586 20.5086 52.586 20.6086C52.586 20.6086 52.586 20.7086 52.486 20.7086C52.486 20.7086 52.486 20.8086 52.386 20.8086C52.486 20.7086 52.386 20.8086 52.386 20.8086L52.286 20.9086C52.286 20.9086 52.186 21.0086 52.286 20.9086C52.186 21.0086 52.086 21.0086 52.086 21.1086C52.086 21.1086 51.986 21.1086 51.986 21.2086C52.086 21.2086 51.986 21.2086 51.986 21.2086C51.886 21.2086 51.786 21.3086 51.686 21.3086C51.686 21.3086 51.686 21.3086 51.586 21.3086C51.486 21.3086 51.686 21.3086 51.586 21.3086H51.486H51.386C51.386 21.3086 51.386 21.3086 51.286 21.3086C51.286 21.3086 51.186 21.3086 51.286 21.3086C51.386 21.3086 51.186 21.3086 51.186 21.3086H51.086H50.986C50.986 21.3086 50.886 21.3086 50.986 21.3086C51.086 21.3086 50.986 21.3086 50.986 21.3086C50.886 21.3086 50.886 21.2086 50.786 21.2086C50.686 21.2086 50.886 21.3086 50.786 21.2086L50.686 21.1086L50.586 21.0086L50.486 20.9086L50.386 20.8086C50.386 20.8086 50.386 20.8086 50.386 20.7086C50.386 20.7086 50.386 20.8086 50.386 20.7086C50.386 20.6086 50.286 20.5086 50.286 20.4086C50.286 20.3086 50.286 20.3086 50.286 20.2086C50.286 20.3086 50.286 20.1086 50.286 20.1086C50.286 20.0086 50.286 19.9086 50.286 19.8086C50.286 19.7086 50.286 19.8086 50.286 19.8086V19.7086C50.286 19.6086 50.286 19.6086 50.286 19.5086C50.286 19.4086 50.286 19.4086 50.386 19.3086C50.386 19.3086 50.386 19.3086 50.386 19.2086C50.386 19.3086 50.386 19.2086 50.386 19.2086C50.486 19.1086 50.486 19.0086 50.586 18.9086C50.786 18.7086 50.586 18.3086 50.386 18.2086C49.986 18.2086 49.686 18.3086 49.586 18.6086Z" fill="black"/>
<path d="M75.986 31.4086C78.486 29.0086 80.986 26.5086 83.486 24.1086C83.986 23.7086 83.286 22.9086 82.786 23.4086C80.286 25.8086 77.786 28.3086 75.286 30.7086C74.786 31.2086 75.486 31.9086 75.986 31.4086Z" fill="black"/>
<path d="M82.5861 23.1086C82.5861 24.0086 83.2861 24.7086 84.0861 25.0086C84.4861 25.1086 84.8861 25.2086 85.2861 25.1086C85.6861 25.0086 86.0861 24.7086 86.3861 24.4086C86.8861 23.8086 86.8861 22.8086 86.5861 22.1086C86.2861 21.4086 85.4861 20.9086 84.6861 21.0086C83.7861 21.1086 82.8861 21.7086 82.6861 22.6086C82.5861 22.9086 82.7861 23.2086 82.9861 23.2086C83.2861 23.3086 83.5861 23.1086 83.5861 22.9086C83.5861 22.8086 83.5861 22.8086 83.6861 22.7086C83.6861 22.6086 83.6861 22.7086 83.6861 22.7086C83.6861 22.7086 83.6861 22.6086 83.7861 22.6086C83.7861 22.6086 83.7861 22.5086 83.8861 22.5086C83.9861 22.4086 83.8861 22.6086 83.8861 22.5086C83.8861 22.4086 83.9861 22.4086 84.0861 22.3086L84.1861 22.2086C84.1861 22.2086 84.0861 22.3086 84.1861 22.2086C84.2861 22.2086 84.2861 22.1086 84.3861 22.1086H84.4861H84.5861C84.6861 22.1086 84.6861 22.1086 84.7861 22.0086H84.8861C84.9861 22.0086 84.7861 22.0086 84.8861 22.0086C84.9861 22.0086 84.9861 22.0086 85.0861 22.0086H85.1861C85.2861 22.0086 85.0861 22.0086 85.1861 22.0086C85.2861 22.0086 85.2861 22.0086 85.3861 22.1086H85.4861C85.4861 22.1086 85.5861 22.1086 85.5861 22.2086C85.6861 22.2086 85.5861 22.2086 85.5861 22.2086C85.5861 22.2086 85.6861 22.3086 85.7861 22.3086C85.8861 22.4086 85.7861 22.3086 85.7861 22.3086L85.8861 22.4086C85.8861 22.5086 85.9861 22.5086 85.9861 22.6086C85.9861 22.7086 85.9861 22.5086 85.9861 22.6086V22.7086C85.9861 22.8086 85.9861 22.8086 85.9861 22.9086C85.9861 23.0086 85.9861 22.8086 85.9861 22.8086V22.9086V23.0086C85.9861 23.1086 85.9861 23.1086 85.9861 23.2086C85.9861 23.3086 85.9861 23.1086 85.9861 23.1086V23.2086C85.9861 23.3086 85.9861 23.3086 85.8861 23.4086C85.8861 23.4086 85.7861 23.5086 85.8861 23.4086C85.8861 23.3086 85.8861 23.4086 85.8861 23.5086C85.8861 23.6086 85.7861 23.6086 85.7861 23.7086L85.6861 23.8086C85.6861 23.8086 85.6861 23.8086 85.5861 23.9086C85.5861 23.9086 85.6861 23.8086 85.5861 23.9086C85.4861 23.9086 85.4861 24.0086 85.3861 24.0086C85.3861 24.0086 85.4861 24.0086 85.3861 24.0086H85.2861H85.1861C85.0861 24.0086 85.2861 24.0086 85.1861 24.0086C85.0861 24.0086 85.0861 24.0086 84.9861 24.0086C84.9861 24.0086 84.9861 24.0086 84.8861 24.0086C84.7861 24.0086 84.8861 24.0086 84.8861 24.0086C84.8861 24.0086 84.9861 24.0086 84.8861 24.0086C84.8861 24.0086 84.8861 24.0086 84.7861 24.0086C84.6861 24.0086 84.5861 24.0086 84.4861 23.9086C84.3861 23.9086 84.5861 23.9086 84.4861 23.9086C84.4861 23.9086 84.3861 23.9086 84.3861 23.8086C84.2861 23.8086 84.1861 23.7086 84.1861 23.7086C84.1861 23.7086 84.2861 23.8086 84.1861 23.7086C84.1861 23.7086 84.1861 23.7086 84.0861 23.7086L83.9861 23.6086L83.8861 23.5086C83.8861 23.5086 83.8861 23.5086 83.8861 23.4086C83.8861 23.3086 83.7861 23.3086 83.7861 23.2086C83.6861 23.1086 83.7861 23.3086 83.7861 23.2086V23.1086V23.0086C83.7861 23.0086 83.7861 23.1086 83.7861 23.0086V22.9086C83.7861 22.6086 83.5861 22.4086 83.2861 22.4086C82.8861 22.6086 82.5861 22.9086 82.5861 23.1086Z" fill="black"/>
<path d="M52.486 44.0086C51.586 45.1086 51.386 46.7086 52.086 48.1086C52.486 48.8086 53.186 49.6086 53.986 49.2086C54.686 48.9086 54.786 48.0086 54.786 47.4086C54.886 46.3086 54.786 45.2086 54.786 44.2086C54.786 44.0086 54.686 43.8086 54.386 43.7086C53.586 43.6086 52.786 43.9086 52.486 44.6086C52.386 44.8086 52.386 45.1086 52.686 45.3086C52.886 45.4086 53.286 45.4086 53.386 45.1086C53.486 44.8086 53.786 44.6086 54.186 44.6086C54.086 44.4086 53.986 44.3086 53.786 44.1086C53.886 45.1086 53.886 46.1086 53.786 47.1086C53.786 47.5086 53.786 47.8086 53.686 48.2086C53.686 48.3086 53.586 48.3086 53.586 48.4086C53.686 48.4086 53.586 48.4086 53.586 48.4086C53.586 48.4086 53.486 48.4086 53.486 48.3086C52.986 47.9086 52.786 47.2086 52.786 46.6086C52.786 46.0086 52.886 45.3086 53.286 44.8086C53.486 44.6086 53.486 44.3086 53.286 44.1086C52.986 43.8086 52.586 43.8086 52.486 44.0086Z" fill="black"/>
<path d="M55.586 45.3086C55.286 46.1086 55.186 47.0086 55.286 47.9086C55.386 48.6086 55.486 49.6086 56.186 49.9086C56.786 50.2086 57.486 49.9086 57.886 49.4086C58.386 48.9086 58.586 48.2086 58.486 47.5086C58.386 47.0086 58.286 46.6086 58.186 46.1086C58.086 45.7086 57.986 45.3086 58.086 44.9086C58.186 44.6086 57.986 44.2086 57.586 44.3086C56.886 44.3086 56.186 44.6086 55.686 45.1086C55.186 45.6086 55.986 46.3086 56.386 45.8086C56.686 45.5086 57.086 45.3086 57.586 45.2086C57.386 45.0086 57.286 44.8086 57.086 44.6086C56.886 45.3086 57.086 46.0086 57.186 46.7086C57.286 47.0086 57.386 47.3086 57.386 47.6086C57.386 47.8086 57.386 48.0086 57.286 48.2086C57.186 48.4086 57.086 48.6086 56.886 48.7086C56.786 48.7086 56.786 48.8086 56.686 48.8086C56.586 48.8086 56.686 48.8086 56.586 48.8086C56.586 48.8086 56.586 48.8086 56.486 48.8086C56.486 48.8086 56.386 48.8086 56.486 48.8086C56.586 48.8086 56.486 48.8086 56.486 48.8086C56.386 48.8086 56.486 48.8086 56.486 48.8086C56.486 48.8086 56.386 48.8086 56.486 48.8086L56.386 48.7086C56.286 48.6086 56.286 48.2086 56.286 48.0086C56.186 47.2086 56.286 46.4086 56.586 45.6086C56.686 45.3086 56.486 45.1086 56.286 45.0086C55.886 44.9086 55.686 45.1086 55.586 45.3086Z" fill="black"/>
<path d="M48.8861 48.3086C48.3861 49.6086 49.4861 50.7086 50.2861 51.6086C51.1861 52.6086 52.1861 53.4086 53.2861 54.2086C55.4861 55.8086 57.9861 56.9086 60.5861 57.6086C65.7861 58.9086 71.2861 58.2086 75.9861 55.8086C78.6861 54.4086 81.0861 52.4086 82.9861 50.0086C83.3861 49.5086 82.6861 48.8086 82.2861 49.3086C79.1861 53.2086 74.7861 55.9086 69.8861 56.9086C64.9861 57.9086 59.7861 57.0086 55.3861 54.5086C54.1861 53.8086 53.0861 53.0086 52.0861 52.1086C51.5861 51.6086 51.0861 51.2086 50.5861 50.7086C50.0861 50.2086 49.3861 49.5086 49.6861 48.7086C50.0861 48.0086 49.0861 47.7086 48.8861 48.3086Z" fill="black"/>
<path d="M59.486 57.9086C60.186 60.4086 63.286 61.1086 65.486 60.8086C67.986 60.5086 70.186 59.2086 71.686 57.2086C72.086 56.7086 71.186 56.2086 70.786 56.7086C69.586 58.4086 67.686 59.5086 65.686 59.8086C63.886 60.1086 60.986 59.7086 60.486 57.6086C60.286 57.0086 59.286 57.3086 59.486 57.9086Z" fill="black"/>
<path d="M62.386 60.8086C62.586 61.6086 63.486 62.3086 64.286 62.2086C65.186 62.1086 65.986 61.3086 65.886 60.3086C65.886 60.0086 65.686 59.8086 65.386 59.8086C65.086 59.8086 64.886 60.0086 64.886 60.3086V60.5086C64.886 60.4086 64.886 60.4086 64.886 60.5086V60.6086C64.886 60.6086 64.886 60.6086 64.886 60.7086C64.886 60.6086 64.886 60.6086 64.886 60.7086V60.8086C64.886 60.8086 64.886 60.9086 64.786 60.9086C64.786 60.9086 64.786 60.8086 64.786 60.9086C64.686 61.0086 64.686 61.0086 64.586 61.1086C64.486 61.2086 64.686 61.1086 64.586 61.1086C64.586 61.1086 64.486 61.1086 64.486 61.2086C64.486 61.2086 64.386 61.2086 64.386 61.3086C64.286 61.3086 64.486 61.3086 64.386 61.3086H64.286C64.186 61.3086 64.286 61.3086 64.286 61.3086C64.186 61.3086 64.186 61.3086 64.086 61.3086C63.986 61.3086 64.186 61.3086 64.086 61.3086H63.986H63.886C63.786 61.3086 63.986 61.4086 63.886 61.3086C63.786 61.3086 63.786 61.2086 63.686 61.2086C63.586 61.1086 63.786 61.3086 63.686 61.2086C63.686 61.2086 63.586 61.2086 63.586 61.1086C63.586 61.1086 63.586 61.0086 63.486 61.0086C63.386 60.9086 63.486 61.1086 63.486 61.0086C63.486 60.9086 63.386 60.9086 63.386 60.8086V60.7086C63.286 60.4086 62.986 60.3086 62.786 60.4086C62.486 60.3086 62.386 60.5086 62.386 60.8086Z" fill="black"/>
</g>
<g opacity="0.06">
<path d="M151.086 82.8086C150.986 80.0086 149.586 77.5086 147.486 75.7086C145.186 73.7086 142.186 72.6086 139.286 72.0086C136.086 71.4086 132.786 71.0086 129.686 72.2086C128.286 72.8086 126.986 73.6086 125.786 74.5086C124.586 75.4086 123.286 76.3086 122.286 77.4086C120.186 79.6086 119.586 82.7086 119.686 85.7086C119.786 88.6086 120.486 91.4086 121.986 93.9086C124.786 98.9086 130.286 102.209 136.086 102.309C142.386 102.409 148.086 98.2086 150.686 92.5086C150.986 91.9086 150.086 91.4086 149.786 92.0086C147.686 96.6086 143.286 100.509 138.186 101.209C132.886 101.909 127.486 99.6086 124.186 95.5086C122.486 93.4086 121.386 90.9086 120.986 88.2086C120.486 85.6086 120.586 82.5086 121.786 80.1086C122.386 78.8086 123.486 77.8086 124.586 76.9086C125.686 76.0086 126.786 75.1086 127.986 74.4086C129.186 73.7086 130.486 73.0086 131.886 72.7086C133.486 72.3086 135.086 72.4086 136.686 72.6086C139.886 73.0086 143.286 73.8086 145.986 75.7086C148.386 77.4086 150.186 80.0086 150.286 82.9086C150.086 83.4086 151.086 83.4086 151.086 82.8086Z" fill="black"/>
<path d="M149.086 81.9086C147.286 83.4086 148.486 86.5086 149.086 88.3086C149.486 89.7086 149.986 91.1086 150.486 92.4086C150.986 93.6086 151.386 94.9086 152.186 96.0086C152.686 96.8086 153.586 97.7086 154.586 97.0086C155.486 96.4086 155.786 94.9086 156.086 94.0086C156.686 91.6086 156.386 89.0086 155.286 86.8086C154.086 84.5086 152.086 82.7086 149.686 81.8086C149.086 81.6086 148.786 82.5086 149.386 82.8086C153.086 84.2086 155.586 87.9086 155.386 91.9086C155.386 92.9086 155.086 94.0086 154.786 95.0086C154.686 95.3086 154.386 96.1086 154.086 96.3086C153.586 96.6086 153.086 95.7086 152.886 95.3086C151.786 93.4086 151.086 91.2086 150.386 89.1086C149.986 87.9086 149.686 86.7086 149.386 85.5086C149.186 84.6086 149.086 83.4086 149.886 82.7086C150.286 82.2086 149.586 81.5086 149.086 81.9086Z" fill="black"/>
<path d="M118.986 84.7086C115.886 86.6086 115.486 90.5086 115.686 93.8086C115.686 94.6086 115.686 95.6086 116.086 96.3086C116.486 96.9086 117.286 97.0086 117.886 96.8086C118.686 96.6086 119.186 95.9086 119.686 95.3086C120.386 94.5086 120.986 93.7086 121.686 92.9086C122.086 92.4086 121.386 91.7086 120.986 92.2086C120.486 92.8086 119.986 93.4086 119.486 94.0086C119.086 94.5086 118.586 95.2086 118.086 95.6086C117.886 95.8086 117.486 96.0086 117.186 95.9086C116.786 95.8086 116.686 95.4086 116.686 95.0086C116.586 94.2086 116.586 93.5086 116.586 92.7086C116.486 90.1086 116.986 87.0086 119.486 85.5086C119.986 85.3086 119.486 84.4086 118.986 84.7086Z" fill="black"/>
<path d="M119.686 87.8086C117.986 90.1086 117.186 92.9086 117.386 95.7086C117.486 96.3086 118.486 96.3086 118.386 95.7086C118.186 93.1086 118.886 90.4086 120.486 88.3086C120.886 87.8086 120.086 87.3086 119.686 87.8086Z" fill="black"/>
<path d="M129.686 89.4086C130.186 90.3086 131.186 90.9086 132.186 90.9086C133.186 90.9086 134.286 90.3086 134.786 89.4086C135.086 88.8086 134.186 88.3086 133.886 88.9086C133.586 89.5086 132.886 89.9086 132.186 89.9086C131.486 89.9086 130.886 89.5086 130.486 88.8086C130.186 88.3086 129.386 88.8086 129.686 89.4086Z" fill="black"/>
<path d="M124.786 76.4086C128.386 74.5086 132.486 73.8086 136.486 74.2086C138.386 74.4086 140.386 74.9086 141.986 76.0086C143.586 77.1086 144.586 78.8086 145.186 80.6086C147.286 87.0086 143.586 94.5086 137.286 96.9086C133.386 98.4086 128.986 98.2086 125.286 96.4086C124.686 96.1086 124.186 97.0086 124.786 97.3086C128.386 99.0086 132.486 99.4086 136.286 98.4086C139.886 97.4086 142.986 95.0086 144.786 91.8086C146.586 88.7086 147.186 85.0086 146.386 81.6086C145.986 79.7086 145.086 77.9086 143.786 76.5086C142.386 75.0086 140.386 74.1086 138.386 73.7086C133.586 72.7086 128.486 73.4086 124.186 75.7086C123.686 75.8086 124.186 76.7086 124.786 76.4086Z" fill="black"/>
<path d="M135.586 72.1086C136.386 70.8086 137.186 69.4086 137.986 68.1086C138.386 67.5086 138.786 66.8086 139.086 66.2086C139.286 65.9086 139.486 65.6086 139.686 65.2086C139.786 65.0086 139.986 64.7086 140.286 64.7086C140.786 64.7086 140.086 65.7086 139.986 65.9086C139.786 66.1086 139.686 66.4086 139.386 66.6086C139.186 66.8086 138.886 67.0086 138.686 67.2086C138.186 67.8086 137.986 68.5086 137.686 69.2086C137.386 69.9086 136.986 70.6086 136.686 71.3086C136.386 71.9086 137.286 72.4086 137.586 71.8086C137.886 71.2086 138.186 70.5086 138.486 69.9086C138.786 69.3086 138.986 68.6086 139.386 68.0086C139.486 67.8086 139.686 67.6086 139.986 67.4086C140.286 67.2086 140.486 67.0086 140.686 66.7086C140.986 66.3086 141.386 65.7086 141.486 65.2086C141.586 64.7086 141.486 64.1086 140.986 63.8086C140.486 63.5086 139.886 63.7086 139.486 64.0086C138.986 64.4086 138.686 65.0086 138.386 65.5086C137.986 66.1086 137.586 66.8086 137.286 67.4086C136.486 68.8086 135.586 70.2086 134.786 71.6086C134.386 72.2086 135.186 72.7086 135.586 72.1086Z" fill="black"/>
<path d="M150.486 83.6086C151.386 87.9086 152.886 92.1086 154.786 96.0086C155.086 96.6086 155.986 96.1086 155.686 95.5086C153.686 91.6086 152.286 87.5086 151.486 83.3086C151.286 82.7086 150.386 83.0086 150.486 83.6086Z" fill="black"/>
<path d="M128.886 82.6086C128.886 82.8086 128.886 82.9086 128.786 82.9086C128.786 82.9086 128.786 82.9086 128.686 82.9086C128.786 82.9086 128.786 82.9086 128.686 82.9086L128.586 82.8086V82.9086C128.586 83.2086 128.586 83.5086 128.586 83.8086C128.586 84.5086 128.486 85.1086 128.386 85.8086C128.386 85.8086 128.386 85.8086 128.386 85.9086C128.386 85.9086 128.386 86.0086 128.386 85.9086H128.486C128.686 85.9086 128.786 85.9086 128.786 86.0086C128.886 86.1086 128.786 86.1086 128.786 86.0086C128.786 85.7086 128.786 85.3086 128.886 85.0086C128.886 84.3086 128.986 83.6086 128.986 82.9086C128.986 82.6086 128.786 82.4086 128.486 82.4086C128.186 82.4086 127.986 82.6086 127.986 82.9086C127.886 83.7086 127.886 84.5086 127.786 85.3086C127.786 85.7086 127.686 86.1086 127.786 86.4086C127.886 86.8086 128.386 87.1086 128.786 86.8086C129.086 86.6086 129.286 86.3086 129.286 86.0086C129.386 85.6086 129.386 85.2086 129.386 84.8086C129.386 84.4086 129.486 84.0086 129.486 83.6086C129.486 83.2086 129.486 82.9086 129.386 82.5086C129.286 82.1086 128.886 81.8086 128.486 81.8086C127.986 81.8086 127.686 82.2086 127.786 82.7086C127.786 83.0086 128.186 83.1086 128.386 83.0086C128.886 83.1086 128.986 82.9086 128.886 82.6086Z" fill="black"/>
<path d="M136.786 83.1086C136.986 82.9086 137.186 82.8086 137.286 82.6086C136.986 82.5086 136.686 82.5086 136.486 82.4086C136.686 83.0086 136.786 83.6086 136.786 84.2086C136.786 84.8086 136.786 85.5086 136.486 86.0086L136.386 86.1086C136.486 86.0086 136.686 86.0086 136.786 86.2086V86.1086C136.786 86.0086 136.786 85.9086 136.786 85.9086C136.786 85.6086 136.786 85.2086 136.786 84.9086C136.786 84.2086 136.886 83.5086 136.986 82.8086C136.986 82.5086 136.686 82.3086 136.486 82.3086C136.186 82.3086 135.986 82.5086 135.986 82.8086C135.886 83.7086 135.786 84.6086 135.786 85.4086C135.786 85.6086 135.786 85.8086 135.786 86.1086C135.786 86.3086 135.786 86.5086 135.886 86.7086C136.086 87.1086 136.686 87.1086 136.986 86.8086C137.286 86.5086 137.386 86.2086 137.486 85.8086C137.586 85.4086 137.586 85.0086 137.686 84.6086C137.686 83.8086 137.586 83.0086 137.386 82.2086C137.286 81.8086 136.886 81.7086 136.586 82.0086C136.386 82.2086 136.186 82.3086 136.086 82.5086C135.886 82.7086 135.886 83.0086 136.086 83.2086C136.286 83.3086 136.586 83.3086 136.786 83.1086Z" fill="black"/>
</g>
<g opacity="0.06">
<path d="M19.4177 221.436C28.6045 218.999 38.0725 217.686 47.5406 217.499C48.103 217.499 48.103 216.561 47.5406 216.561C37.9788 216.749 28.417 218.061 19.2302 220.498C18.574 220.686 18.7615 221.623 19.4177 221.436Z" fill="black"/>
<path d="M18.3866 221.905C18.3866 227.342 18.7616 232.779 19.699 238.122C20.074 239.997 20.3552 242.341 22.0426 243.653C22.98 244.309 24.0112 244.403 25.1361 244.403C26.4485 244.309 27.7609 244.122 29.0733 243.934C34.5104 243.278 39.8537 242.528 45.2908 241.684C46.5095 241.497 47.8219 241.403 49.0405 241.028C50.0717 240.653 50.6342 239.903 51.0091 238.872C51.3841 237.747 51.4778 236.622 51.6653 235.497C51.8528 234.372 51.8528 233.154 51.9466 231.935C52.0403 226.592 50.7279 221.155 48.1968 216.374C47.9156 215.811 47.0719 216.28 47.3532 216.843C49.4155 220.873 50.7279 225.279 50.9154 229.779C51.0091 232.029 50.9154 234.279 50.5404 236.529C50.3529 237.56 50.2592 238.778 49.603 239.528C48.853 240.372 47.4469 240.372 46.5095 240.56C41.4473 241.309 36.3852 242.059 31.2294 242.716C30.0107 242.903 28.7921 242.997 27.5734 243.184C26.4485 243.278 25.1361 243.559 24.0112 243.372C21.8551 243.091 21.2926 240.747 20.9177 238.872C19.8865 233.248 19.324 227.623 19.4178 221.905C19.324 221.248 18.3866 221.248 18.3866 221.905Z" fill="black"/>
<path d="M30.2919 226.779C30.1044 228.091 30.2919 229.31 30.8543 230.528C31.0418 230.81 31.5104 230.81 31.6979 230.528C32.6352 228.841 32.354 226.779 31.1355 225.279C30.8543 224.998 30.4794 225.186 30.3856 225.467C29.8232 226.967 30.0107 228.654 30.6668 230.154C30.8543 230.528 31.4167 230.435 31.5104 230.06C31.8854 228.654 31.7916 227.06 31.323 225.748C31.2292 225.467 31.0418 225.373 30.7606 225.467C30.5731 225.561 30.3856 225.842 30.4794 226.029C30.948 227.248 31.0418 228.56 30.6668 229.872C30.948 229.872 31.2292 229.779 31.5104 229.779C30.948 228.56 30.8543 227.154 31.323 225.842C31.0418 225.936 30.7606 225.936 30.5731 226.029C31.5104 227.154 31.6042 228.841 30.948 230.154C31.2292 230.154 31.5104 230.154 31.7916 230.154C31.323 229.216 31.1355 228.185 31.323 227.154C31.323 226.873 31.2292 226.685 31.0418 226.592C30.6668 226.31 30.3856 226.498 30.2919 226.779Z" fill="black"/>
<path d="M38.9161 225.186C38.6349 226.685 39.0099 228.279 40.1347 229.404C40.3221 229.591 40.6971 229.591 40.8845 229.31C41.9156 227.623 41.5407 225.279 40.0409 224.061C39.7597 223.78 39.3848 223.967 39.2911 224.248C38.8224 225.467 38.8224 226.966 39.2911 228.185C39.3848 228.56 39.9472 228.654 40.1347 228.279C40.7908 227.06 40.8845 225.56 40.4159 224.154C40.3221 223.78 39.7597 223.686 39.5723 224.061C39.0099 225.279 39.0099 226.592 39.666 227.81C39.9472 228.372 40.7908 227.904 40.5096 227.341C40.0409 226.498 40.0409 225.467 40.4159 224.529C40.1347 224.529 39.8535 224.436 39.5723 224.436C39.9472 225.56 39.9472 226.779 39.3848 227.81C39.666 227.81 39.9472 227.904 40.2284 227.904C39.7597 226.779 39.7597 225.56 40.2284 224.436C39.9472 224.529 39.666 224.529 39.4785 224.623C40.6971 225.654 40.9783 227.435 40.2284 228.747C40.5096 228.747 40.6971 228.654 40.9783 228.654C40.1347 227.81 39.7597 226.592 39.9472 225.373C39.9472 224.811 39.1036 224.623 38.9161 225.186Z" fill="black"/>
<path d="M27.292 232.966C29.7294 234.466 32.7291 233.997 35.3539 233.622C38.4474 233.154 41.541 232.404 44.5407 231.373C45.1032 231.185 44.822 230.248 44.2595 230.435C41.4472 231.373 38.6349 232.029 35.7289 232.498C33.1978 232.873 30.0106 233.529 27.667 232.029C27.292 231.841 26.8233 232.591 27.292 232.966Z" fill="black"/>
<path d="M17.7303 218.811C22.4174 217.499 27.1046 216.374 31.7917 215.343C34.1353 214.874 36.4788 214.405 38.7287 213.936C41.166 213.562 43.6033 213.28 46.0406 213.655C46.6031 213.749 46.6031 212.812 46.0406 212.718C43.6971 212.437 41.2597 212.624 38.9162 212.999C36.4789 213.374 34.1353 213.843 31.698 214.405C26.9171 215.436 22.1362 216.561 17.449 217.874C16.8866 218.061 17.1678 218.999 17.7303 218.811Z" fill="black"/>
<path d="M17.3553 218.342C18.574 219.374 19.8864 220.217 21.2925 220.967C21.48 221.061 21.7613 221.061 21.9487 220.78C22.0425 220.592 22.0425 220.217 21.7613 220.123C20.4489 219.467 19.2302 218.624 18.0115 217.686C17.8241 217.499 17.5428 217.499 17.3553 217.686C17.1679 217.874 17.1679 218.249 17.3553 218.342Z" fill="black"/>
<path d="M16.9804 218.249C15.9492 218.155 14.918 219.092 14.8243 220.124C14.7305 221.248 15.5742 221.998 16.5117 222.373C17.0741 222.561 17.6366 222.655 18.1053 222.748C18.3865 222.748 18.574 222.467 18.574 222.28C18.574 221.998 18.3865 221.811 18.1053 221.811H18.0115C18.1053 221.811 18.0115 221.811 18.0115 221.811C17.9178 221.811 17.9178 221.811 17.8241 221.811C17.7303 221.811 17.5428 221.811 17.4491 221.717C17.1679 221.623 16.9804 221.623 16.6991 221.53H16.6054C16.5117 221.53 16.5117 221.436 16.4179 221.436C16.3242 221.342 16.2304 221.342 16.1367 221.248C16.2304 221.342 16.0429 221.155 16.0429 221.155L15.9492 221.061C15.9492 221.061 15.9492 221.061 15.8554 220.967C15.8554 220.873 15.7617 220.873 15.7617 220.78V220.686C15.7617 220.592 15.7617 220.592 15.668 220.498C15.668 220.405 15.668 220.405 15.668 220.498V220.405C15.668 220.311 15.668 220.311 15.668 220.217C15.668 220.311 15.668 220.124 15.668 220.124C15.668 220.03 15.668 220.03 15.7617 219.936C15.7617 220.03 15.7617 219.842 15.8554 219.842C15.8554 219.749 15.9492 219.749 15.9492 219.655C15.9492 219.749 16.0429 219.561 16.0429 219.561L16.1367 219.467C16.1367 219.467 16.2304 219.467 16.2304 219.374C16.3242 219.374 16.3242 219.28 16.4179 219.28C16.5117 219.28 16.5117 219.28 16.4179 219.28H16.5117C16.6054 219.28 16.6054 219.28 16.6991 219.28C16.7929 219.28 16.7929 219.28 16.6991 219.28H16.7929C16.8866 219.28 16.8866 219.28 16.9804 219.28C17.2616 219.28 17.4491 218.999 17.4491 218.811C17.4491 218.436 17.1679 218.249 16.9804 218.249Z" fill="black"/>
<path d="M14.6368 221.905C14.9181 225.936 15.4805 229.967 16.1367 233.904C16.5117 235.872 16.8867 237.841 17.3554 239.81C17.5429 240.841 17.8241 241.778 18.1053 242.809C18.2928 243.466 18.3866 244.309 18.949 244.778C19.4177 245.247 20.0739 245.34 20.6364 245.059C21.1988 244.778 21.5738 244.028 22.3238 243.934C22.8862 243.84 22.6987 242.903 22.0425 242.997C21.2926 243.184 20.9176 243.747 20.3552 244.122C19.5115 244.684 19.2302 243.372 19.0428 242.809C18.4803 240.559 17.9178 238.31 17.4491 235.966C16.5117 231.373 15.8555 226.686 15.5743 221.998C15.5743 221.342 14.6368 221.342 14.6368 221.905Z" fill="black"/>
<path d="M18.7614 244.965C19.3238 246.465 20.8236 247.496 22.4171 247.309C23.9168 247.121 25.3228 245.903 25.5103 244.403C25.5103 244.122 25.4165 243.934 25.2291 243.84C25.0416 243.747 24.6667 243.934 24.6667 244.122C24.4792 245.246 23.5419 246.278 22.4171 246.371C21.2922 246.559 20.0737 245.809 19.6988 244.684C19.605 244.403 19.4176 244.309 19.1364 244.403C18.8552 244.497 18.6677 244.778 18.7614 244.965Z" fill="black"/>
<path d="M24.5735 247.215C28.6982 246.559 32.7292 245.997 36.8539 245.34C38.9162 245.059 40.8848 244.778 42.9471 244.403C43.9783 244.215 45.0095 244.122 46.0407 243.934C46.8843 243.84 47.8218 243.747 48.5717 243.466C49.3217 243.184 49.8841 242.622 50.0716 241.872C50.2591 241.122 49.9779 240.466 49.4154 240.091C48.9467 239.716 48.478 240.559 48.9467 240.934C49.3217 241.216 49.2279 241.684 49.0404 242.059C48.8529 242.434 48.3842 242.622 47.9155 242.809C46.8843 243.091 45.7594 243.184 44.7283 243.372C42.4784 243.747 40.2286 244.028 37.9788 244.403C33.3854 245.059 28.8857 245.809 24.2923 246.465C23.7298 246.372 24.0111 247.309 24.5735 247.215Z" fill="black"/>
<path d="M49.3216 243.84C50.8213 243.559 52.321 242.996 53.1646 241.59C53.9145 240.372 53.8208 238.684 52.6022 237.841C52.0398 237.372 51.1962 237.185 50.5401 237.466C50.2589 237.56 50.1652 237.747 50.2589 238.028C50.3526 238.216 50.6338 238.403 50.8213 238.309C51.3837 238.122 51.9461 238.309 52.4148 238.778C52.8834 239.247 52.8834 239.903 52.696 240.465C52.2273 241.965 50.5401 242.621 49.1341 242.902C48.8529 242.996 48.7592 243.277 48.8529 243.465C48.7592 243.746 49.0404 243.934 49.3216 243.84Z" fill="black"/>
<path d="M45.7595 213.374C46.1345 214.499 46.2282 215.811 46.0407 217.03C46.0407 217.311 46.1345 217.499 46.322 217.592C46.5095 217.686 46.8844 217.499 46.8844 217.311C47.1657 215.905 47.0719 214.499 46.6032 213.187C46.5095 212.905 46.322 212.812 46.0407 212.905C45.8533 212.905 45.7595 213.187 45.7595 213.374Z" fill="black"/>
<path d="M46.3219 213.655C47.353 213.655 48.384 214.124 48.8527 214.967C49.5088 216.092 48.9464 217.217 48.384 218.154C48.1028 218.717 48.8527 219.185 49.2276 218.623C49.6026 217.967 50.0712 217.217 50.165 216.467C50.2587 215.811 50.165 215.061 49.79 214.499C49.0402 213.374 47.7279 212.718 46.4156 212.718C45.7595 212.718 45.7595 213.655 46.3219 213.655Z" fill="black"/>
<path d="M49.5091 215.436C50.3528 219.374 51.2903 223.311 51.9465 227.248C52.6027 231.091 52.8839 235.122 51.6652 238.872C51.4777 239.435 52.4152 239.716 52.6027 239.153C53.8213 235.31 53.5401 231.279 52.9776 227.435C52.3214 223.311 51.2903 219.28 50.4466 215.249C50.3528 214.593 49.4154 214.874 49.5091 215.436Z" fill="black"/>
<path d="M13.2307 225.842C12.762 225.373 12.1058 225.373 11.637 225.842C11.0746 226.404 11.0746 227.248 11.0746 227.904C11.0746 229.779 11.3558 231.654 11.9183 233.529C12.1995 234.279 13.2307 237.653 14.5431 236.435C15.1055 235.966 14.918 234.935 15.0118 234.279C15.0118 233.341 15.0118 232.31 14.8243 231.373C14.5431 229.31 13.8869 227.248 13.0432 225.373C12.9494 225.092 12.4807 225.092 12.2932 225.279C12.012 225.561 11.637 225.842 11.3558 226.123C11.637 226.311 11.9183 226.404 12.1058 226.592C12.4807 225.561 13.1369 224.717 13.9806 223.967C14.4493 223.592 13.7931 222.936 13.3244 223.311C12.387 224.154 11.637 225.186 11.1683 226.404C10.9808 226.873 11.637 227.154 11.9183 226.873C12.1995 226.592 12.5745 226.311 12.8557 226.029C12.5745 226.029 12.387 225.936 12.1058 225.936C12.8557 227.435 13.4182 229.123 13.6994 230.81C13.8869 231.654 13.9806 232.498 13.9806 233.341C13.9806 233.716 13.9806 234.185 13.9806 234.56C13.9806 234.747 14.0744 235.685 13.8869 235.779C13.4182 235.966 12.2932 231.654 12.1995 231.185C12.012 230.342 11.9183 229.498 11.9183 228.748C11.9183 228.373 11.9183 227.904 11.9183 227.529C11.9183 227.342 12.1058 226.311 12.4807 226.686C12.9494 226.967 13.6056 226.311 13.2307 225.842Z" fill="black"/>
<path d="M13.6994 237.091C14.3554 237.372 15.1051 237.372 15.7611 237.278C16.0422 237.278 16.1359 236.903 16.0422 236.716C15.9485 236.435 15.7611 236.341 15.4799 236.435H15.3862C15.2925 236.435 15.4799 236.435 15.3862 236.435C15.2925 236.435 15.1988 236.435 15.1988 236.435C15.0114 236.435 14.9177 236.435 14.7302 236.435C14.7302 236.435 14.5428 236.435 14.7302 236.435H14.6365C14.5428 236.435 14.4491 236.435 14.4491 236.435C14.2616 236.435 14.1679 236.341 13.9805 236.341C13.8868 236.341 13.6994 236.341 13.6056 236.435C13.5119 236.528 13.4182 236.622 13.4182 236.716C13.4182 236.81 13.4182 236.997 13.5119 237.091C13.5119 236.997 13.6056 236.997 13.6994 237.091Z" fill="black"/>
<path d="M12.4808 218.061C13.512 218.155 14.6369 218.53 15.4806 219.186C15.6681 219.374 15.9493 219.374 16.1368 219.186C16.3243 218.999 16.3243 218.717 16.1368 218.53C15.1056 217.686 13.8869 217.124 12.4808 217.124C12.1996 217.124 12.0121 217.311 12.0121 217.592C12.0121 217.78 12.1996 218.061 12.4808 218.061Z" fill="black"/>
<path d="M11.262 217.967C10.8871 220.311 11.0745 222.748 11.7307 224.997C11.9181 225.56 12.7618 225.372 12.668 224.716C12.0119 222.56 11.8244 220.311 12.1994 218.155C12.1994 217.874 12.1056 217.686 11.9181 217.592C11.6369 217.499 11.262 217.686 11.262 217.967Z" fill="black"/>
<path d="M14.2618 237.185C14.6368 238.31 14.918 239.435 15.293 240.559C15.5742 241.497 15.8555 242.434 16.2304 243.278C16.6054 244.028 17.1679 244.684 17.9178 245.153C18.6678 245.528 19.6052 245.809 20.0739 246.559C20.3551 247.028 21.1988 246.559 20.9176 246.09C20.4489 245.34 19.7927 245.059 19.0427 244.684C18.199 244.309 17.6366 243.84 17.1679 242.997C16.6992 242.153 16.5117 241.309 16.2304 240.372C15.8555 239.247 15.5742 238.122 15.1993 236.997C15.0118 236.341 14.0743 236.622 14.2618 237.185Z" fill="black"/>
<path d="M25.8858 211.686C25.5109 212.155 25.0422 212.718 25.0422 213.374C25.0422 214.03 25.4172 214.592 26.0733 214.686C26.8232 214.873 27.6668 214.498 28.4166 214.311C29.1665 214.124 30.0101 213.842 30.76 213.561C31.1349 213.467 31.5099 213.28 31.8848 213.092C32.166 212.999 32.5409 212.811 32.8221 212.624C33.3845 212.061 33.1033 211.312 32.6347 210.843C31.5099 209.906 30.1038 209.531 28.6978 209.812C27.1981 210.187 25.9796 211.312 25.4172 212.718C25.2297 213.28 26.0733 213.561 26.3545 212.999C27.1044 211.124 29.2602 210.187 31.1349 211.03C31.3224 211.124 31.6036 211.218 31.7911 211.405C31.8848 211.499 32.3535 211.78 32.2597 211.874C32.2597 211.968 31.9785 212.155 31.8848 212.155C31.6036 212.249 31.3224 212.436 31.0412 212.53C29.9164 212.999 28.6978 213.374 27.4793 213.655C27.1981 213.749 26.2608 214.124 26.0733 213.655C25.9796 213.28 26.3545 212.718 26.6357 212.436C27.0106 211.874 26.3545 211.218 25.8858 211.686Z" fill="black"/>
<path d="M12.4807 217.592C16.2304 215.718 20.3551 214.405 24.5736 213.749C25.136 213.655 24.9485 212.718 24.2923 212.812C19.9802 213.468 15.8555 214.78 12.012 216.749C11.5433 217.124 12.012 217.874 12.4807 217.592Z" fill="black"/>
<path d="M33.1979 212.249C35.5414 211.593 37.885 211.03 40.3223 211.312C42.5721 211.499 44.7282 212.343 46.5093 213.655C46.9781 214.03 47.4468 213.187 46.9781 212.812C45.1032 211.499 42.8534 210.655 40.5098 210.374C37.9787 210.093 35.4477 210.655 33.0104 211.312C32.3542 211.499 32.5417 212.437 33.1979 212.249Z" fill="black"/>
<path d="M28.2278 210.279C25.8845 207.749 23.26 205.405 20.448 203.437C19.9793 203.062 19.5106 203.906 19.9793 204.28C22.6976 206.249 25.2284 208.498 27.5717 211.029C27.9466 211.404 28.6028 210.654 28.2278 210.279Z" fill="black"/>
<path d="M16.7929 200.156C16.043 201.281 15.7618 202.874 16.418 204.093C16.9804 205.124 18.3864 205.78 19.6049 205.405C22.1357 204.655 22.3232 200.156 19.6986 199.406C18.5738 199.031 17.0741 199.594 16.7929 200.906C16.6054 201.468 17.5428 201.75 17.7302 201.187C17.824 200.812 18.0114 200.625 18.2926 200.437C18.5738 200.25 18.9488 200.25 19.23 200.25C20.0736 200.344 20.5422 201.094 20.636 201.937C20.7297 202.781 20.4485 203.999 19.5112 204.374C18.7613 204.749 17.9177 204.374 17.3553 203.718C16.6054 202.781 16.9804 201.375 17.5428 200.531C17.7302 200.344 17.5428 199.969 17.3553 199.875C17.1678 199.875 16.8866 199.969 16.7929 200.156Z" fill="black"/>
<path d="M24.8534 204.093C23.5412 204.749 22.4164 205.686 21.5728 206.811C21.1041 207.374 20.6354 207.936 20.448 208.592C20.2605 209.248 20.5417 209.998 21.2916 209.998C21.6665 209.998 21.9477 209.904 22.2289 209.717C22.6038 209.53 22.9788 209.436 23.3537 209.248C24.0098 208.967 24.666 208.592 25.2284 208.124C25.7908 207.655 26.3532 207.186 26.9156 206.718C27.1968 206.436 27.3842 206.155 27.5717 205.874C27.7592 205.593 28.0404 205.312 28.0404 204.937C28.0404 203.999 26.7281 203.999 26.072 204.093C25.2284 204.187 24.4785 204.468 23.8224 205.03C23.3537 205.405 24.0098 206.061 24.4785 205.686C24.8534 205.312 25.4158 205.124 25.8845 205.03C26.1657 205.03 26.3532 204.937 26.6344 205.03C26.7281 205.03 26.8218 205.03 27.0093 205.03H27.1968C27.1968 204.843 27.1968 204.749 27.103 204.843C27.103 204.843 27.103 204.937 27.0093 204.937C26.3532 205.78 25.5096 206.624 24.666 207.28C23.7286 207.936 22.7913 208.499 21.7602 208.873C21.6665 208.873 21.2916 209.061 21.2916 208.967C21.1978 208.873 21.479 208.499 21.479 208.405C21.7602 207.936 22.0414 207.467 22.4164 207.093C23.26 206.155 24.1973 205.405 25.3221 204.843C25.8845 204.655 25.4158 203.812 24.8534 204.093Z" fill="black"/>
<path d="M52.2277 221.248C52.1339 221.436 52.1339 221.342 52.3214 221.53C52.4152 221.623 52.5089 221.717 52.5089 221.811C52.6964 221.998 52.8839 222.28 52.9776 222.467C53.2589 222.936 53.5401 223.311 53.7276 223.873C54.1963 224.811 54.4775 225.842 54.665 226.873C54.8525 228.279 54.7587 230.81 52.9776 231.185C52.4152 231.279 52.6027 232.216 53.2589 232.123C55.7899 231.56 55.8837 228.279 55.5087 226.217C55.2275 224.811 54.665 223.405 53.9151 222.28C53.5401 221.717 53.1651 221.061 52.6964 220.686C52.3214 220.405 51.6652 220.311 51.384 220.873C51.1028 221.342 51.9465 221.811 52.2277 221.248Z" fill="black"/>
</g>
<g opacity="0.06">
<path d="M229.486 184.709C231.486 185.209 233.386 185.809 235.386 186.309C235.286 186.109 235.186 185.809 235.086 185.609C232.586 189.309 230.986 193.409 230.286 197.809C229.786 201.009 229.486 205.909 233.286 207.309C236.986 208.609 240.886 205.609 242.786 202.709C245.186 199.009 245.686 194.509 245.886 190.109C245.886 189.509 245.886 189.009 246.586 188.809C246.986 188.709 247.486 188.809 247.986 188.809C248.786 188.809 249.686 188.909 250.486 189.309C252.586 190.209 251.986 192.709 251.786 194.509C251.286 198.709 250.086 202.809 247.786 206.309C245.586 209.609 242.286 212.209 238.486 213.409C234.886 214.509 229.986 214.509 227.086 211.709C224.286 209.009 224.286 204.509 224.586 200.909C224.986 196.309 226.186 191.809 228.186 187.709C228.686 186.709 229.186 185.709 229.786 184.709C230.086 184.109 229.286 183.609 228.886 184.209C226.586 188.209 224.886 192.609 224.086 197.209C223.386 201.109 222.886 205.709 224.486 209.509C225.186 211.309 226.486 212.809 228.186 213.709C229.986 214.709 231.986 215.109 233.986 215.109C237.986 215.109 241.786 213.509 244.886 211.009C248.186 208.309 250.286 204.509 251.586 200.509C252.186 198.509 252.586 196.409 252.886 194.309C253.086 192.509 253.486 190.109 251.886 188.709C250.586 187.609 248.686 187.509 247.086 187.609C246.186 187.609 245.386 187.909 245.086 188.809C244.986 189.309 244.986 189.809 244.986 190.309C244.986 190.909 244.886 191.509 244.886 192.209C244.586 196.609 243.486 201.309 239.986 204.309C238.486 205.609 236.286 206.709 234.286 206.209C232.186 205.809 231.286 203.809 231.186 201.809C230.986 199.609 231.386 197.309 231.986 195.209C232.586 192.909 233.386 190.809 234.386 188.709C234.886 187.709 235.486 186.709 236.086 185.809C236.286 185.509 236.086 185.109 235.786 185.109C233.786 184.609 231.886 184.009 229.886 183.509C229.086 183.609 228.886 184.509 229.486 184.709Z" fill="black"/>
<path d="M234.786 186.309C235.086 187.909 237.086 188.909 236.886 190.709C236.786 191.809 236.286 192.909 235.986 194.009C235.686 195.109 235.386 196.309 234.986 197.409C234.186 200.109 232.286 204.809 235.386 206.709C235.886 207.009 236.386 206.209 235.886 205.809C234.586 205.009 234.586 203.209 234.886 201.809C235.186 199.809 235.886 197.909 236.486 196.009C236.786 194.909 237.086 193.909 237.386 192.809C237.686 191.909 237.986 190.909 237.886 190.009C237.686 188.409 236.086 187.609 235.786 186.009C235.586 185.409 234.686 185.709 234.786 186.309Z" fill="black"/>
<path d="M251.986 190.709C253.986 191.309 254.186 193.909 254.086 195.609C253.886 198.209 252.986 200.809 252.086 203.209C251.086 205.809 249.786 208.209 248.286 210.509C247.586 211.609 246.786 212.709 245.786 213.509C244.686 214.509 243.486 215.009 242.086 215.209C238.786 215.809 235.186 215.409 231.986 214.509C231.386 214.309 231.086 215.309 231.686 215.509C234.886 216.309 238.286 216.709 241.486 216.309C242.886 216.109 244.386 215.809 245.486 214.909C246.586 214.109 247.486 213.009 248.286 211.909C250.086 209.409 251.586 206.709 252.686 203.809C253.686 201.209 254.686 198.309 254.886 195.509C255.086 193.209 254.586 190.409 252.086 189.609C251.686 189.509 251.386 190.509 251.986 190.709Z" fill="black"/>
<path d="M237.486 173.509C237.686 175.709 237.886 177.909 238.086 180.109C238.186 180.709 239.186 180.709 239.086 180.109C238.886 177.909 238.686 175.709 238.486 173.509C238.486 172.909 237.486 172.909 237.486 173.509Z" fill="black"/>
<path d="M243.086 172.909C242.486 175.309 242.186 177.709 242.186 180.109C242.186 180.709 243.186 180.709 243.186 180.109C243.186 177.809 243.486 175.409 243.986 173.109C244.286 172.509 243.286 172.309 243.086 172.909Z" fill="black"/>
<path d="M250.886 176.009C249.586 177.609 248.386 179.109 247.086 180.709C246.886 180.909 246.886 181.209 247.086 181.409C247.286 181.609 247.586 181.609 247.786 181.409C249.086 179.809 250.286 178.309 251.586 176.709C251.786 176.509 251.786 176.209 251.586 176.009C251.386 175.809 251.086 175.809 250.886 176.009Z" fill="black"/>
<path d="M226.786 190.509C228.686 190.409 230.586 190.809 232.286 191.509C232.586 191.609 232.786 191.409 232.886 191.209C232.986 190.909 232.786 190.709 232.586 190.609C230.786 189.909 228.786 189.509 226.786 189.609C226.086 189.509 226.086 190.509 226.786 190.509Z" fill="black"/>
<path d="M232.986 192.109C233.786 193.209 234.486 194.309 235.286 195.409C235.486 195.609 235.686 195.709 235.986 195.609C236.186 195.509 236.286 195.109 236.186 194.909C235.386 193.809 234.686 192.709 233.886 191.609C233.686 191.409 233.486 191.309 233.186 191.409C232.886 191.609 232.786 191.909 232.986 192.109Z" fill="black"/>
<path d="M245.686 196.109C247.286 195.509 249.086 195.509 250.686 196.109C250.986 196.209 251.186 196.009 251.286 195.809C251.386 195.509 251.186 195.309 250.986 195.209C249.286 194.509 247.186 194.509 245.486 195.209C245.186 195.309 245.086 195.509 245.186 195.809C245.186 196.009 245.486 196.209 245.686 196.109Z" fill="black"/>
<path d="M251.186 197.109H251.286C251.386 197.109 251.186 197.109 251.286 197.109C251.386 197.109 251.386 197.209 251.486 197.209C251.586 197.309 251.786 197.409 251.886 197.409C251.886 197.409 251.986 197.409 251.986 197.509C251.886 197.409 251.986 197.509 251.986 197.509C252.086 197.609 252.086 197.609 252.186 197.709C252.286 197.809 252.386 197.909 252.486 198.009C252.586 198.109 252.486 198.009 252.486 198.009C252.486 198.009 252.486 198.109 252.586 198.109C252.586 198.209 252.686 198.209 252.686 198.309C252.786 198.409 252.786 198.609 252.886 198.709C252.986 198.809 252.886 198.609 252.886 198.709V198.809C252.886 198.909 252.886 198.909 252.986 199.009C252.986 199.209 253.086 199.309 253.086 199.509C253.086 199.809 253.486 199.909 253.686 199.809C253.986 199.709 254.086 199.509 253.986 199.209C253.786 197.709 252.686 196.509 251.286 196.009C251.086 195.909 250.686 196.109 250.686 196.309C250.686 196.709 250.886 197.009 251.186 197.109Z" fill="black"/>
</g>
<g opacity="0.06">
<path d="M178.99 19.2086C180.99 12.3086 186.69 6.80863 193.69 5.10863C197.29 4.20863 201.39 4.20863 204.89 5.50863C208.49 6.80863 210.59 9.80863 211.59 13.4086C212.79 17.8086 212.59 22.5086 211.29 26.9086C211.09 27.5086 212.09 27.8086 212.29 27.2086C213.59 23.0086 213.79 18.6086 212.89 14.3086C212.09 10.7086 210.29 7.10863 206.99 5.30863C203.49 3.40863 199.19 3.20863 195.39 3.80863C191.49 4.40863 187.79 6.10863 184.79 8.70863C181.59 11.4086 179.29 15.0086 178.09 19.0086C177.89 19.5086 178.79 19.8086 178.99 19.2086Z" fill="black"/>
<path d="M183.69 20.6087C186.39 16.3087 190.39 12.4087 195.39 10.9087C197.79 10.2087 200.89 9.70865 203.19 10.9087C205.39 12.0087 206.19 14.6087 206.49 16.9087C206.89 20.3087 206.59 23.8087 205.99 27.1087C205.89 27.7087 206.89 28.0087 206.99 27.4087C207.49 24.1087 207.89 20.6087 207.49 17.2087C207.29 14.8087 206.59 12.2087 204.59 10.6087C202.39 8.90865 199.09 9.00865 196.49 9.50865C193.79 10.1087 191.29 11.4087 189.09 13.0087C186.59 14.9087 184.49 17.3087 182.79 20.0087C182.49 20.6087 183.29 21.2087 183.69 20.6087Z" fill="black"/>
<path d="M188.09 22.8086C189.09 21.0086 190.59 19.4086 192.29 18.1086C193.09 17.5086 193.89 17.1086 194.79 16.7086C195.69 16.3086 197.09 15.6086 198.09 15.9086C199.09 16.2086 199.79 17.3086 200.29 18.1086C200.69 18.9086 200.99 19.9086 201.09 20.8086C201.39 22.9086 201.09 24.9086 200.79 27.0086C200.69 27.6086 201.69 27.9086 201.79 27.3086C202.29 23.9086 202.79 19.9086 200.79 16.9086C200.29 16.2086 199.69 15.5086 198.89 15.1086C197.99 14.7086 197.09 14.8086 196.19 15.1086C194.49 15.6086 192.79 16.5086 191.39 17.6086C189.69 18.9086 188.39 20.5086 187.29 22.3086C186.89 22.9086 187.69 23.4086 188.09 22.8086Z" fill="black"/>
<path d="M187.79 23.5086C187.09 22.2086 186.19 20.8086 184.79 20.3086C183.59 19.9086 182.19 20.1086 181.39 21.2086C180.99 21.7086 181.79 22.1086 182.19 21.8086C182.79 21.3086 182.59 20.4086 182.09 19.8086C181.49 19.1086 180.49 18.7086 179.69 18.4086C177.89 17.8086 175.79 18.0086 174.29 19.2086C171.59 21.3086 171.39 26.0086 174.79 27.4086C176.39 28.1086 178.39 27.8086 179.59 26.5086C179.29 26.4086 178.99 26.4086 178.79 26.3086C179.99 29.5086 184.19 31.0086 186.99 29.1086C186.79 29.1086 186.59 29.0086 186.39 29.0086C187.99 30.8086 191.39 30.2086 192.39 28.0086C193.49 25.3086 190.39 22.4086 187.79 23.4086C187.19 23.6086 187.49 24.6086 188.09 24.4086C189.99 23.7086 192.49 25.8086 191.49 27.7086C190.69 29.2086 188.39 29.6086 187.19 28.3086C187.09 28.1086 186.79 28.1086 186.59 28.2086C184.29 29.7086 180.79 28.6086 179.79 26.0086C179.69 25.7086 179.19 25.5086 178.99 25.8086C177.99 26.9086 176.29 27.1086 174.99 26.4086C173.49 25.6086 172.99 23.9086 173.39 22.4086C173.89 20.7086 175.29 19.4086 177.09 19.2086C177.99 19.1086 178.89 19.2086 179.69 19.5086C179.99 19.6086 182.19 20.7086 181.59 21.2086C181.89 21.4086 182.09 21.6086 182.39 21.8086C182.99 21.0086 184.19 21.1086 184.99 21.6086C185.99 22.2086 186.59 23.2086 187.09 24.2086C187.29 24.5086 188.09 24.0086 187.79 23.5086Z" fill="black"/>
<path d="M199.89 29.7086C200.79 28.1086 203.29 27.6086 204.69 28.9086C204.99 29.2086 205.39 29.0086 205.49 28.7086C205.99 27.5086 207.19 26.8086 208.49 26.9086C209.79 27.0086 210.79 28.0086 211.09 29.2086C211.19 29.6086 211.79 29.7086 211.99 29.3086C212.39 28.3086 213.59 28.0086 214.49 28.3086C215.69 28.7086 216.19 29.9086 215.99 31.1086C215.59 33.8086 212.39 35.0086 210.19 33.7086C209.99 33.6086 209.79 33.6086 209.69 33.7086C207.19 35.2086 203.69 34.4086 201.99 32.0086C201.79 31.7086 201.29 31.6086 201.09 32.0086C200.69 32.9086 199.39 33.2086 198.69 32.5086C197.89 31.7086 198.49 30.2086 199.59 30.0086C200.19 29.9086 200.19 28.9086 199.59 29.0086C197.79 29.2086 196.59 31.5086 197.79 33.0086C198.89 34.3086 201.29 34.0086 201.99 32.5086C201.69 32.5086 201.39 32.5086 201.09 32.5086C203.09 35.4086 207.09 36.3086 210.09 34.5086C209.89 34.5086 209.79 34.5086 209.59 34.5086C212.59 36.2086 216.89 34.3086 216.99 30.7086C216.99 29.1086 216.09 27.6086 214.59 27.3086C213.29 27.0086 211.69 27.5086 211.09 28.8086C211.39 28.8086 211.69 28.9086 211.99 28.9086C211.59 27.2086 210.09 26.0086 208.39 25.8086C206.69 25.7086 205.09 26.8086 204.39 28.4086C204.69 28.3086 204.99 28.3086 205.19 28.2086C203.29 26.5086 200.09 27.0086 198.79 29.2086C198.79 29.7086 199.59 30.2086 199.89 29.7086Z" fill="black"/>
</g>
<g opacity="0.06">
<path d="M11.486 86.3086C15.686 85.1086 19.786 83.9086 23.986 82.7086C24.686 82.5086 25.986 81.9086 26.586 82.4086C27.286 82.9086 26.886 84.5086 26.886 85.1086C26.786 87.3086 26.486 89.4086 26.186 91.6086C25.786 93.9086 25.286 96.3086 24.686 98.6086C24.586 98.9086 24.886 99.4086 25.286 99.2086C26.386 98.7086 27.586 98.3086 28.686 97.8086C29.186 97.6086 29.586 97.3086 30.086 97.3086C30.786 97.2086 30.586 98.0086 30.386 98.4086C29.586 100.709 28.686 103.009 27.786 105.209C25.986 109.709 24.086 114.209 21.986 118.609C20.886 121.109 19.686 123.509 18.486 125.909C18.786 125.909 19.086 126.009 19.386 126.009C18.486 119.709 17.586 113.409 16.686 107.109C16.686 106.809 16.286 106.709 16.086 106.809C13.586 107.709 11.086 108.609 8.58604 109.509C8.78604 109.709 8.98604 109.809 9.18604 110.009C9.68604 102.009 10.086 93.9086 11.786 86.0086C11.886 85.4086 10.986 85.1086 10.786 85.7086C9.08604 93.7086 8.68604 101.809 8.18604 110.009C8.18604 110.309 8.48604 110.609 8.78604 110.509C11.286 109.609 13.786 108.709 16.286 107.809C16.086 107.709 15.886 107.609 15.686 107.509C16.586 113.809 17.486 120.109 18.386 126.409C18.486 126.809 19.086 126.909 19.286 126.509C21.686 121.709 23.986 116.809 26.086 111.809C27.086 109.409 28.086 106.909 29.086 104.509C29.586 103.209 30.086 102.009 30.586 100.709C30.786 100.109 30.986 99.5086 31.286 98.9086C31.486 98.4086 31.686 97.9086 31.586 97.3086C31.386 96.2086 30.186 96.1086 29.286 96.4086C27.786 96.9086 26.386 97.6086 24.986 98.2086C25.186 98.4086 25.386 98.6086 25.586 98.8086C26.786 94.3086 27.586 89.6086 27.886 85.0086C27.986 84.1086 28.086 83.1086 27.686 82.2086C27.286 81.5086 26.586 81.1086 25.686 81.2086C24.686 81.3086 23.686 81.7086 22.686 82.0086C21.486 82.3086 20.286 82.7086 19.086 83.0086C16.486 83.8086 13.786 84.5086 11.186 85.3086C10.586 85.5086 10.886 86.5086 11.486 86.3086Z" fill="black"/>
</g>
<g opacity="0.06">
<path d="M229.786 57.3085C227.886 59.5085 229.386 62.8085 227.586 65.0085C225.886 67.1085 222.086 67.6085 221.586 70.6085C221.386 71.8085 221.986 73.0085 223.186 73.4085C224.286 73.8085 225.486 73.6085 226.586 73.9085C228.186 74.3085 228.186 75.9085 228.186 77.2085C228.286 78.8085 228.586 80.3085 229.386 81.7085C229.686 82.3085 230.086 82.9085 230.786 83.0085C231.486 83.2085 232.086 82.7085 232.486 82.2085C233.786 80.6085 234.986 78.9085 236.286 77.2085C236.686 76.7085 235.786 76.2085 235.386 76.7085C234.386 78.0085 233.386 79.4085 232.386 80.7085C232.086 81.1085 231.486 82.3085 230.886 82.0085C230.286 81.7085 229.986 80.6085 229.786 80.1085C229.286 78.7085 229.386 77.4085 229.186 76.0085C229.086 74.9085 228.686 73.9085 227.686 73.3085C226.786 72.8085 225.686 72.8085 224.686 72.7085C223.486 72.6085 222.386 72.1085 222.686 70.7085C222.986 69.3085 224.286 68.6085 225.386 68.0085C226.486 67.4085 227.586 66.7085 228.386 65.7085C229.286 64.6085 229.586 63.3085 229.686 62.0085C229.786 60.7085 229.686 59.1085 230.586 58.0085C230.886 57.5085 230.186 56.8085 229.786 57.3085Z" fill="black"/>
<path d="M230.786 58.0086C231.686 59.1086 232.686 60.2086 233.586 61.2086C234.386 62.1086 235.086 62.9086 236.386 63.1086C237.686 63.2086 238.886 62.7086 240.186 62.6086C241.586 62.5086 242.886 62.8086 244.186 63.2086C244.086 63.1086 243.986 63.0086 243.886 63.0086C244.786 64.7086 242.286 66.2086 241.586 67.4086C240.886 68.7086 241.086 70.1086 241.686 71.3086C242.386 72.6086 243.586 73.7086 244.386 75.0086C244.786 75.7086 245.386 76.7086 244.886 77.4086C244.486 78.0086 243.586 78.0086 242.986 77.9086C241.986 77.8086 241.086 77.5086 240.086 77.2086C238.886 76.9086 237.686 76.6086 236.386 76.3086C235.786 76.1086 235.486 77.1086 236.086 77.3086C237.786 77.7086 239.586 78.2086 241.286 78.6086C242.386 78.9086 243.586 79.1086 244.686 78.7086C247.486 77.5086 244.986 74.1086 243.886 72.7086C243.186 71.8086 242.286 70.8086 242.086 69.6086C241.786 68.1086 242.986 67.2086 243.886 66.1086C244.686 65.2086 245.486 63.8086 244.786 62.6086C244.486 62.0086 243.686 61.9086 243.086 61.8086C242.286 61.6086 241.386 61.5086 240.486 61.5086C239.586 61.5086 238.786 61.6086 237.986 61.8086C237.086 62.0086 236.086 62.1086 235.286 61.5086C234.586 61.0086 234.086 60.2086 233.486 59.5086C232.786 58.7086 232.086 57.9086 231.386 57.1086C231.086 56.8086 230.286 57.5086 230.786 58.0086Z" fill="black"/>
</g>
</svg>
